<?xml version="1.0" encoding="UTF-8" standalone="no"?><svg xmlns="http://www.w3.org/2000/svg" xmlns:xlink="http://www.w3.org/1999/xlink" contentScriptType="application/ecmascript" contentStyleType="text/css" height="619px" preserveAspectRatio="none" style="width:1776px;height:619px;" version="1.1" viewBox="0 0 1776 619" width="1776px" zoomAndPan="magnify"><defs><filter height="300%" id="fug3hbq3jtgmx" width="300%" x="-1" y="-1"><feGaussianBlur result="blurOut" stdDeviation="2.0"/><feColorMatrix in="blurOut" result="blurOut2" type="matrix" values="0 0 0 0 0 0 0 0 0 0 0 0 0 0 0 0 0 0 .4 0"/><feOffset dx="4.0" dy="4.0" in="blurOut2" result="blurOut3"/><feBlend in="SourceGraphic" in2="blurOut3" mode="normal"/></filter></defs><g><!--MD5=[ecaed46f78f8cfe1e9ce18477649be18]
class Plataforma--><rect fill="#FEFECE" filter="url(#fug3hbq3jtgmx)" height="52.8047" id="Plataforma" style="stroke: #A80036; stroke-width: 1.5;" width="119" x="6" y="118.5"/><ellipse cx="29.55" cy="134.5" fill="#ADD1B2" rx="11" ry="11" style="stroke: #A80036; stroke-width: 1.0;"/><path d="M32.5188,140.1406 Q31.9406,140.4375 31.3,140.5859 Q30.6594,140.7344 29.9563,140.7344 Q27.4563,140.7344 26.1359,139.0859 Q24.8156,137.4375 24.8156,134.3125 Q24.8156,131.1875 26.1359,129.5313 Q27.4563,127.875 29.9563,127.875 Q30.6594,127.875 31.3078,128.0313 Q31.9563,128.1875 32.5188,128.4844 L32.5188,131.2031 Q31.8938,130.625 31.3,130.3516 Q30.7063,130.0781 30.0813,130.0781 Q28.7375,130.0781 28.05,131.1484 Q27.3625,132.2188 27.3625,134.3125 Q27.3625,136.4063 28.05,137.4766 Q28.7375,138.5469 30.0813,138.5469 Q30.7063,138.5469 31.3,138.2734 Q31.8938,138 32.5188,137.4219 L32.5188,140.1406 Z "/><text fill="#000000" font-family="sans-serif" font-size="12" lengthAdjust="spacingAndGlyphs" textLength="68" x="45.45" y="138.6543">Plataforma</text><line style="stroke: #A80036; stroke-width: 1.5;" x1="7" x2="124" y1="150.5" y2="150.5"/><text fill="#000000" font-family="sans-serif" font-size="11" lengthAdjust="spacingAndGlyphs" textLength="107" x="12" y="164.7104">-String designacao</text><!--MD5=[807977ceb130c090ed5febfb6de2bdea]
class Organizacao--><rect fill="#FEFECE" filter="url(#fug3hbq3jtgmx)" height="104.0234" id="Organizacao" style="stroke: #A80036; stroke-width: 1.5;" width="109" x="482" y="504"/><ellipse cx="497" cy="520" fill="#ADD1B2" rx="11" ry="11" style="stroke: #A80036; stroke-width: 1.0;"/><path d="M499.9688,525.6406 Q499.3906,525.9375 498.75,526.0859 Q498.1094,526.2344 497.4063,526.2344 Q494.9063,526.2344 493.5859,524.5859 Q492.2656,522.9375 492.2656,519.8125 Q492.2656,516.6875 493.5859,515.0313 Q494.9063,513.375 497.4063,513.375 Q498.1094,513.375 498.7578,513.5313 Q499.4063,513.6875 499.9688,513.9844 L499.9688,516.7031 Q499.3438,516.125 498.75,515.8516 Q498.1563,515.5781 497.5313,515.5781 Q496.1875,515.5781 495.5,516.6484 Q494.8125,517.7188 494.8125,519.8125 Q494.8125,521.9063 495.5,522.9766 Q496.1875,524.0469 497.5313,524.0469 Q498.1563,524.0469 498.75,523.7734 Q499.3438,523.5 499.9688,522.9219 L499.9688,525.6406 Z "/><text fill="#000000" font-family="sans-serif" font-size="12" lengthAdjust="spacingAndGlyphs" textLength="77" x="511" y="524.1543">Organizacao</text><line style="stroke: #A80036; stroke-width: 1.5;" x1="483" x2="590" y1="536" y2="536"/><text fill="#000000" font-family="sans-serif" font-size="11" lengthAdjust="spacingAndGlyphs" textLength="74" x="488" y="550.2104">-String nome</text><text fill="#000000" font-family="sans-serif" font-size="11" lengthAdjust="spacingAndGlyphs" textLength="59" x="488" y="563.0151">-String NIF</text><text fill="#000000" font-family="sans-serif" font-size="11" lengthAdjust="spacingAndGlyphs" textLength="86" x="488" y="575.8198">-String website</text><text fill="#000000" font-family="sans-serif" font-size="11" lengthAdjust="spacingAndGlyphs" textLength="88" x="488" y="588.6245">-String telefone</text><text fill="#000000" font-family="sans-serif" font-size="11" lengthAdjust="spacingAndGlyphs" textLength="73" x="488" y="601.4292">-String email</text><!--MD5=[ac8682ea5466d223e49472789fb200d2]
class Colaborador--><rect fill="#FEFECE" filter="url(#fug3hbq3jtgmx)" height="91.2188" id="Colaborador" style="stroke: #A80036; stroke-width: 1.5;" width="109" x="1070" y="458.5"/><ellipse cx="1085" cy="474.5" fill="#ADD1B2" rx="11" ry="11" style="stroke: #A80036; stroke-width: 1.0;"/><path d="M1087.9688,480.1406 Q1087.3906,480.4375 1086.75,480.5859 Q1086.1094,480.7344 1085.4063,480.7344 Q1082.9063,480.7344 1081.5859,479.0859 Q1080.2656,477.4375 1080.2656,474.3125 Q1080.2656,471.1875 1081.5859,469.5313 Q1082.9063,467.875 1085.4063,467.875 Q1086.1094,467.875 1086.7578,468.0313 Q1087.4063,468.1875 1087.9688,468.4844 L1087.9688,471.2031 Q1087.3438,470.625 1086.75,470.3516 Q1086.1563,470.0781 1085.5313,470.0781 Q1084.1875,470.0781 1083.5,471.1484 Q1082.8125,472.2188 1082.8125,474.3125 Q1082.8125,476.4063 1083.5,477.4766 Q1084.1875,478.5469 1085.5313,478.5469 Q1086.1563,478.5469 1086.75,478.2734 Q1087.3438,478 1087.9688,477.4219 L1087.9688,480.1406 Z "/><text fill="#000000" font-family="sans-serif" font-size="12" lengthAdjust="spacingAndGlyphs" textLength="77" x="1099" y="478.6543">Colaborador</text><line style="stroke: #A80036; stroke-width: 1.5;" x1="1071" x2="1178" y1="490.5" y2="490.5"/><text fill="#000000" font-family="sans-serif" font-size="11" lengthAdjust="spacingAndGlyphs" textLength="74" x="1076" y="504.7104">-String nome</text><text fill="#000000" font-family="sans-serif" font-size="11" lengthAdjust="spacingAndGlyphs" textLength="80" x="1076" y="517.5151">-String funcao</text><text fill="#000000" font-family="sans-serif" font-size="11" lengthAdjust="spacingAndGlyphs" textLength="88" x="1076" y="530.3198">-String telefone</text><text fill="#000000" font-family="sans-serif" font-size="11" lengthAdjust="spacingAndGlyphs" textLength="73" x="1076" y="543.1245">-String email</text><!--MD5=[d0e9f237fb3c72e1245c36c562ad52c4]
class TipoRegimento--><rect fill="#FEFECE" filter="url(#fug3hbq3jtgmx)" height="65.6094" id="TipoRegimento" style="stroke: #A80036; stroke-width: 1.5;" width="149" x="1050" y="84"/><ellipse cx="1075.8" cy="100" fill="#ADD1B2" rx="11" ry="11" style="stroke: #A80036; stroke-width: 1.0;"/><path d="M1078.7688,105.6406 Q1078.1906,105.9375 1077.55,106.0859 Q1076.9094,106.2344 1076.2063,106.2344 Q1073.7063,106.2344 1072.3859,104.5859 Q1071.0656,102.9375 1071.0656,99.8125 Q1071.0656,96.6875 1072.3859,95.0313 Q1073.7063,93.375 1076.2063,93.375 Q1076.9094,93.375 1077.5578,93.5313 Q1078.2063,93.6875 1078.7688,93.9844 L1078.7688,96.7031 Q1078.1438,96.125 1077.55,95.8516 Q1076.9563,95.5781 1076.3313,95.5781 Q1074.9875,95.5781 1074.3,96.6484 Q1073.6125,97.7188 1073.6125,99.8125 Q1073.6125,101.9063 1074.3,102.9766 Q1074.9875,104.0469 1076.3313,104.0469 Q1076.9563,104.0469 1077.55,103.7734 Q1078.1438,103.5 1078.7688,102.9219 L1078.7688,105.6406 Z "/><text fill="#000000" font-family="sans-serif" font-size="12" lengthAdjust="spacingAndGlyphs" textLength="93" x="1092.2" y="104.1543">TipoRegimento</text><line style="stroke: #A80036; stroke-width: 1.5;" x1="1051" x2="1198" y1="116" y2="116"/><text fill="#000000" font-family="sans-serif" font-size="11" lengthAdjust="spacingAndGlyphs" textLength="107" x="1056" y="130.2104">-String designacao</text><text fill="#000000" font-family="sans-serif" font-size="11" lengthAdjust="spacingAndGlyphs" textLength="137" x="1056" y="143.0151">-String descricaoRegras</text><!--MD5=[1f687b5315377fe49fca59b457947463]
class Freelancer--><rect fill="#FEFECE" filter="url(#fug3hbq3jtgmx)" height="91.2188" id="Freelancer" style="stroke: #A80036; stroke-width: 1.5;" width="100" x="1665" y="88.5"/><ellipse cx="1680.45" cy="104.5" fill="#ADD1B2" rx="11" ry="11" style="stroke: #A80036; stroke-width: 1.0;"/><path d="M1683.4188,110.1406 Q1682.8406,110.4375 1682.2,110.5859 Q1681.5594,110.7344 1680.8563,110.7344 Q1678.3563,110.7344 1677.0359,109.0859 Q1675.7156,107.4375 1675.7156,104.3125 Q1675.7156,101.1875 1677.0359,99.5313 Q1678.3563,97.875 1680.8563,97.875 Q1681.5594,97.875 1682.2078,98.0313 Q1682.8563,98.1875 1683.4188,98.4844 L1683.4188,101.2031 Q1682.7938,100.625 1682.2,100.3516 Q1681.6063,100.0781 1680.9813,100.0781 Q1679.6375,100.0781 1678.95,101.1484 Q1678.2625,102.2188 1678.2625,104.3125 Q1678.2625,106.4063 1678.95,107.4766 Q1679.6375,108.5469 1680.9813,108.5469 Q1681.6063,108.5469 1682.2,108.2734 Q1682.7938,108 1683.4188,107.4219 L1683.4188,110.1406 Z "/><text fill="#000000" font-family="sans-serif" font-size="12" lengthAdjust="spacingAndGlyphs" textLength="67" x="1694.55" y="108.6543">Freelancer</text><line style="stroke: #A80036; stroke-width: 1.5;" x1="1666" x2="1764" y1="120.5" y2="120.5"/><text fill="#000000" font-family="sans-serif" font-size="11" lengthAdjust="spacingAndGlyphs" textLength="74" x="1671" y="134.7104">-String nome</text><text fill="#000000" font-family="sans-serif" font-size="11" lengthAdjust="spacingAndGlyphs" textLength="59" x="1671" y="147.5151">-String NIF</text><text fill="#000000" font-family="sans-serif" font-size="11" lengthAdjust="spacingAndGlyphs" textLength="88" x="1671" y="160.3198">-String telefone</text><text fill="#000000" font-family="sans-serif" font-size="11" lengthAdjust="spacingAndGlyphs" textLength="73" x="1671" y="173.1245">-String email</text><!--MD5=[19db0db7353a4bf63eefc676e5ba9b80]
class Anuncio--><rect fill="#FEFECE" filter="url(#fug3hbq3jtgmx)" height="116.8281" id="Anuncio" style="stroke: #A80036; stroke-width: 1.5;" width="155" x="297" y="218.5"/><ellipse cx="345.25" cy="234.5" fill="#ADD1B2" rx="11" ry="11" style="stroke: #A80036; stroke-width: 1.0;"/><path d="M348.2188,240.1406 Q347.6406,240.4375 347,240.5859 Q346.3594,240.7344 345.6563,240.7344 Q343.1563,240.7344 341.8359,239.0859 Q340.5156,237.4375 340.5156,234.3125 Q340.5156,231.1875 341.8359,229.5313 Q343.1563,227.875 345.6563,227.875 Q346.3594,227.875 347.0078,228.0313 Q347.6563,228.1875 348.2188,228.4844 L348.2188,231.2031 Q347.5938,230.625 347,230.3516 Q346.4063,230.0781 345.7813,230.0781 Q344.4375,230.0781 343.75,231.1484 Q343.0625,232.2188 343.0625,234.3125 Q343.0625,236.4063 343.75,237.4766 Q344.4375,238.5469 345.7813,238.5469 Q346.4063,238.5469 347,238.2734 Q347.5938,238 348.2188,237.4219 L348.2188,240.1406 Z "/><text fill="#000000" font-family="sans-serif" font-size="12" lengthAdjust="spacingAndGlyphs" textLength="50" x="365.75" y="238.6543">Anuncio</text><line style="stroke: #A80036; stroke-width: 1.5;" x1="298" x2="451" y1="250.5" y2="250.5"/><text fill="#000000" font-family="sans-serif" font-size="11" lengthAdjust="spacingAndGlyphs" textLength="141" x="303" y="264.7104">-Date dtInicioPublicitacao</text><text fill="#000000" font-family="sans-serif" font-size="11" lengthAdjust="spacingAndGlyphs" textLength="132" x="303" y="277.5151">-Date dtFimPublicitacao</text><text fill="#000000" font-family="sans-serif" font-size="11" lengthAdjust="spacingAndGlyphs" textLength="143" x="303" y="290.3198">-Date dtInicioCandidatura</text><text fill="#000000" font-family="sans-serif" font-size="11" lengthAdjust="spacingAndGlyphs" textLength="134" x="303" y="303.1245">-Date dtFimCandidatura</text><text fill="#000000" font-family="sans-serif" font-size="11" lengthAdjust="spacingAndGlyphs" textLength="124" x="303" y="315.9292">-Date dtInicioSeriacao</text><text fill="#000000" font-family="sans-serif" font-size="11" lengthAdjust="spacingAndGlyphs" textLength="115" x="303" y="328.7339">-Date dtFimSeriacao</text><!--MD5=[475c5b924ed41035684e2831311827d2]
class Candidatura--><rect fill="#FEFECE" filter="url(#fug3hbq3jtgmx)" height="104.0234" id="Candidatura" style="stroke: #A80036; stroke-width: 1.5;" width="148" x="1359" y="279"/><ellipse cx="1391.55" cy="295" fill="#ADD1B2" rx="11" ry="11" style="stroke: #A80036; stroke-width: 1.0;"/><path d="M1394.5188,300.6406 Q1393.9406,300.9375 1393.3,301.0859 Q1392.6594,301.2344 1391.9563,301.2344 Q1389.4563,301.2344 1388.1359,299.5859 Q1386.8156,297.9375 1386.8156,294.8125 Q1386.8156,291.6875 1388.1359,290.0313 Q1389.4563,288.375 1391.9563,288.375 Q1392.6594,288.375 1393.3078,288.5313 Q1393.9563,288.6875 1394.5188,288.9844 L1394.5188,291.7031 Q1393.8938,291.125 1393.3,290.8516 Q1392.7063,290.5781 1392.0813,290.5781 Q1390.7375,290.5781 1390.05,291.6484 Q1389.3625,292.7188 1389.3625,294.8125 Q1389.3625,296.9063 1390.05,297.9766 Q1390.7375,299.0469 1392.0813,299.0469 Q1392.7063,299.0469 1393.3,298.7734 Q1393.8938,298.5 1394.5188,297.9219 L1394.5188,300.6406 Z "/><text fill="#000000" font-family="sans-serif" font-size="12" lengthAdjust="spacingAndGlyphs" textLength="77" x="1409.45" y="299.1543">Candidatura</text><line style="stroke: #A80036; stroke-width: 1.5;" x1="1360" x2="1506" y1="311" y2="311"/><text fill="#000000" font-family="sans-serif" font-size="11" lengthAdjust="spacingAndGlyphs" textLength="128" x="1365" y="325.2104">-Date dataCandidatura</text><text fill="#000000" font-family="sans-serif" font-size="11" lengthAdjust="spacingAndGlyphs" textLength="136" x="1365" y="338.0151">-Double valorPretendido</text><text fill="#000000" font-family="sans-serif" font-size="11" lengthAdjust="spacingAndGlyphs" textLength="85" x="1365" y="350.8198">-Integer nrDias</text><text fill="#000000" font-family="sans-serif" font-size="11" lengthAdjust="spacingAndGlyphs" textLength="134" x="1365" y="363.6245">-String txtApresentacao</text><text fill="#000000" font-family="sans-serif" font-size="11" lengthAdjust="spacingAndGlyphs" textLength="112" x="1365" y="376.4292">-String txtMotivacao</text><!--MD5=[716bba0e94eea125d5a66a891f2c3c34]
class Classificacao--><rect fill="#FEFECE" filter="url(#fug3hbq3jtgmx)" height="52.8047" id="Classificacao" style="stroke: #A80036; stroke-width: 1.5;" width="113" x="1068" y="298.5"/><ellipse cx="1083" cy="314.5" fill="#ADD1B2" rx="11" ry="11" style="stroke: #A80036; stroke-width: 1.0;"/><path d="M1085.9688,320.1406 Q1085.3906,320.4375 1084.75,320.5859 Q1084.1094,320.7344 1083.4063,320.7344 Q1080.9063,320.7344 1079.5859,319.0859 Q1078.2656,317.4375 1078.2656,314.3125 Q1078.2656,311.1875 1079.5859,309.5313 Q1080.9063,307.875 1083.4063,307.875 Q1084.1094,307.875 1084.7578,308.0313 Q1085.4063,308.1875 1085.9688,308.4844 L1085.9688,311.2031 Q1085.3438,310.625 1084.75,310.3516 Q1084.1563,310.0781 1083.5313,310.0781 Q1082.1875,310.0781 1081.5,311.1484 Q1080.8125,312.2188 1080.8125,314.3125 Q1080.8125,316.4063 1081.5,317.4766 Q1082.1875,318.5469 1083.5313,318.5469 Q1084.1563,318.5469 1084.75,318.2734 Q1085.3438,318 1085.9688,317.4219 L1085.9688,320.1406 Z "/><text fill="#000000" font-family="sans-serif" font-size="12" lengthAdjust="spacingAndGlyphs" textLength="81" x="1097" y="318.6543">Classificacao</text><line style="stroke: #A80036; stroke-width: 1.5;" x1="1069" x2="1180" y1="330.5" y2="330.5"/><text fill="#000000" font-family="sans-serif" font-size="11" lengthAdjust="spacingAndGlyphs" textLength="77" x="1074" y="344.7104">-Integer lugar</text><!--MD5=[aca0f236260d30190baee83e33cc7802]
class ProcessoSeriacao--><rect fill="#FEFECE" filter="url(#fug3hbq3jtgmx)" height="52.8047" id="ProcessoSeriacao" style="stroke: #A80036; stroke-width: 1.5;" width="145" x="621" y="250.5"/><ellipse cx="636" cy="266.5" fill="#ADD1B2" rx="11" ry="11" style="stroke: #A80036; stroke-width: 1.0;"/><path d="M638.9688,272.1406 Q638.3906,272.4375 637.75,272.5859 Q637.1094,272.7344 636.4063,272.7344 Q633.9063,272.7344 632.5859,271.0859 Q631.2656,269.4375 631.2656,266.3125 Q631.2656,263.1875 632.5859,261.5313 Q633.9063,259.875 636.4063,259.875 Q637.1094,259.875 637.7578,260.0313 Q638.4063,260.1875 638.9688,260.4844 L638.9688,263.2031 Q638.3438,262.625 637.75,262.3516 Q637.1563,262.0781 636.5313,262.0781 Q635.1875,262.0781 634.5,263.1484 Q633.8125,264.2188 633.8125,266.3125 Q633.8125,268.4063 634.5,269.4766 Q635.1875,270.5469 636.5313,270.5469 Q637.1563,270.5469 637.75,270.2734 Q638.3438,270 638.9688,269.4219 L638.9688,272.1406 Z "/><text fill="#000000" font-family="sans-serif" font-size="12" lengthAdjust="spacingAndGlyphs" textLength="113" x="650" y="270.6543">ProcessoSeriacao</text><line style="stroke: #A80036; stroke-width: 1.5;" x1="622" x2="765" y1="282.5" y2="282.5"/><text fill="#000000" font-family="sans-serif" font-size="11" lengthAdjust="spacingAndGlyphs" textLength="118" x="627" y="296.7104">-Date dataRealizacao</text><!--MD5=[b8a7ea5f44c73b2c04020f6c8768f435]
class ProcessoAtribuição--><rect fill="#FEFECE" filter="url(#fug3hbq3jtgmx)" height="78.4141" id="ProcessoAtribuição" style="stroke: #A80036; stroke-width: 1.5;" width="177" x="1036" y="185"/><ellipse cx="1061.8" cy="201" fill="#ADD1B2" rx="11" ry="11" style="stroke: #A80036; stroke-width: 1.0;"/><path d="M1064.7688,206.6406 Q1064.1906,206.9375 1063.55,207.0859 Q1062.9094,207.2344 1062.2063,207.2344 Q1059.7063,207.2344 1058.3859,205.5859 Q1057.0656,203.9375 1057.0656,200.8125 Q1057.0656,197.6875 1058.3859,196.0313 Q1059.7063,194.375 1062.2063,194.375 Q1062.9094,194.375 1063.5578,194.5313 Q1064.2063,194.6875 1064.7688,194.9844 L1064.7688,197.7031 Q1064.1438,197.125 1063.55,196.8516 Q1062.9563,196.5781 1062.3313,196.5781 Q1060.9875,196.5781 1060.3,197.6484 Q1059.6125,198.7188 1059.6125,200.8125 Q1059.6125,202.9063 1060.3,203.9766 Q1060.9875,205.0469 1062.3313,205.0469 Q1062.9563,205.0469 1063.55,204.7734 Q1064.1438,204.5 1064.7688,203.9219 L1064.7688,206.6406 Z "/><text fill="#000000" font-family="sans-serif" font-size="12" lengthAdjust="spacingAndGlyphs" textLength="121" x="1078.2" y="205.1543">ProcessoAtribuição</text><line style="stroke: #A80036; stroke-width: 1.5;" x1="1037" x2="1212" y1="217" y2="217"/><text fill="#000000" font-family="sans-serif" font-size="11" lengthAdjust="spacingAndGlyphs" textLength="147" x="1042" y="231.2104">-Date dataInicioRealizacao</text><text fill="#000000" font-family="sans-serif" font-size="11" lengthAdjust="spacingAndGlyphs" textLength="138" x="1042" y="244.0151">-Date dataFimRealizacao</text><text fill="#000000" font-family="sans-serif" font-size="11" lengthAdjust="spacingAndGlyphs" textLength="165" x="1042" y="256.8198">-int Valor RemuneratórioFinal</text><!--MD5=[5d23f069c787b929ec3d2309762b1190]
class Adjudicação--><rect fill="#FEFECE" filter="url(#fug3hbq3jtgmx)" height="40" id="Adjudicação" style="stroke: #A80036; stroke-width: 1.5;" width="108" x="1379" y="204"/><ellipse cx="1394" cy="220" fill="#ADD1B2" rx="11" ry="11" style="stroke: #A80036; stroke-width: 1.0;"/><path d="M1396.9688,225.6406 Q1396.3906,225.9375 1395.75,226.0859 Q1395.1094,226.2344 1394.4063,226.2344 Q1391.9063,226.2344 1390.5859,224.5859 Q1389.2656,222.9375 1389.2656,219.8125 Q1389.2656,216.6875 1390.5859,215.0313 Q1391.9063,213.375 1394.4063,213.375 Q1395.1094,213.375 1395.7578,213.5313 Q1396.4063,213.6875 1396.9688,213.9844 L1396.9688,216.7031 Q1396.3438,216.125 1395.75,215.8516 Q1395.1563,215.5781 1394.5313,215.5781 Q1393.1875,215.5781 1392.5,216.6484 Q1391.8125,217.7188 1391.8125,219.8125 Q1391.8125,221.9063 1392.5,222.9766 Q1393.1875,224.0469 1394.5313,224.0469 Q1395.1563,224.0469 1395.75,223.7734 Q1396.3438,223.5 1396.9688,222.9219 L1396.9688,225.6406 Z "/><text fill="#000000" font-family="sans-serif" font-size="12" lengthAdjust="spacingAndGlyphs" textLength="76" x="1408" y="224.1543">Adjudicação</text><line style="stroke: #A80036; stroke-width: 1.5;" x1="1380" x2="1486" y1="236" y2="236"/><!--MD5=[1c2ad462e362697fcdc859a6327d55c7]
link Plataforma to Organizacao--><path d="M84.612,171.7097 C101.787,194.8827 128.3406,228.7378 155,255 C262.1309,360.5349 405.0319,465.0346 481.9513,518.7754 " fill="none" id="Plataforma-Organizacao" style="stroke: #A80036; stroke-width: 1.0;"/><text fill="#000000" font-family="sans-serif" font-size="13" lengthAdjust="spacingAndGlyphs" textLength="97" x="156" y="251.0669">tem registadas</text><polygon fill="#000000" points="256,245.0664,262,248.0664,256,251.0664,256,245.0664" style="stroke: #000000; stroke-width: 1.0;"/><text fill="#000000" font-family="sans-serif" font-size="13" lengthAdjust="spacingAndGlyphs" textLength="8" x="79.9178" y="191.2959">1</text><text fill="#000000" font-family="sans-serif" font-size="13" lengthAdjust="spacingAndGlyphs" textLength="7" x="467.151" y="526.8554">*</text><!--MD5=[956ecced288de5de0c5f024757c210bf]
link Plataforma to TipoRegimento--><path d="M125.1353,142.1104 C249.7085,136.2254 546.6726,122.9858 796,118 C883.0982,116.2583 983.2117,116.2391 1049.7993,116.5068 " fill="none" id="Plataforma-TipoRegimento" style="stroke: #A80036; stroke-width: 1.0;"/><text fill="#000000" font-family="sans-serif" font-size="13" lengthAdjust="spacingAndGlyphs" textLength="49" x="505.5" y="120.0669">suporta</text><polygon fill="#000000" points="557.5,114.0664,563.5,117.0664,557.5,120.0664,557.5,114.0664" style="stroke: #000000; stroke-width: 1.0;"/><text fill="#000000" font-family="sans-serif" font-size="13" lengthAdjust="spacingAndGlyphs" textLength="8" x="132.8909" y="154.7592">1</text><text fill="#000000" font-family="sans-serif" font-size="13" lengthAdjust="spacingAndGlyphs" textLength="7" x="1035.1014" y="129.2892">*</text><!--MD5=[3d9e8e0d764359bffb897b36dc4b633a]
link Plataforma to Anuncio--><path d="M125.0783,170.4509 C174.0078,191.3529 243.6751,221.1136 296.95,243.8718 " fill="none" id="Plataforma-Anuncio" style="stroke: #A80036; stroke-width: 1.0;"/><text fill="#000000" font-family="sans-serif" font-size="13" lengthAdjust="spacingAndGlyphs" textLength="53" x="178" y="180.0669">publicita</text><polygon fill="#000000" points="234,174.0664,240,177.0664,234,180.0664,234,174.0664" style="stroke: #000000; stroke-width: 1.0;"/><text fill="#000000" font-family="sans-serif" font-size="13" lengthAdjust="spacingAndGlyphs" textLength="8" x="132.8269" y="186.5537">1</text><text fill="#000000" font-family="sans-serif" font-size="13" lengthAdjust="spacingAndGlyphs" textLength="7" x="281.9716" y="253.4309">*</text><!--MD5=[39c0de7668d8063a4eb96c23050b3de2]
link Plataforma to Freelancer--><path d="M105.5479,118.3681 C162.6882,83.0151 272.0625,25 374.5,25 C374.5,25 374.5,25 1433,25 C1518.8184,25 1610.0455,69.4613 1664.767,101.5915 " fill="none" id="Plataforma-Freelancer" style="stroke: #A80036; stroke-width: 1.0;"/><text fill="#000000" font-family="sans-serif" font-size="13" lengthAdjust="spacingAndGlyphs" textLength="53" x="868" y="21.0669">tem/usa</text><polygon fill="#000000" points="924,15.0664,930,18.0664,924,21.0664,924,15.0664" style="stroke: #000000; stroke-width: 1.0;"/><text fill="#000000" font-family="sans-serif" font-size="13" lengthAdjust="spacingAndGlyphs" textLength="8" x="105.884" y="107.5799">1</text><text fill="#000000" font-family="sans-serif" font-size="13" lengthAdjust="spacingAndGlyphs" textLength="7" x="1649.875" y="109.9936">*</text><!--MD5=[567db691f9836c63f305bad1024cbc66]
link Organizacao to Colaborador--><path d="M591.0264,551.1779 C702.9148,541.283 957.347,518.7822 1069.574,508.8574 " fill="none" id="Organizacao-Colaborador" style="stroke: #A80036; stroke-width: 1.0;"/><text fill="#000000" font-family="sans-serif" font-size="13" lengthAdjust="spacingAndGlyphs" textLength="26" x="674" y="532.0669">tem</text><polygon fill="#000000" points="703,526.0664,709,529.0664,703,532.0664,703,526.0664" style="stroke: #000000; stroke-width: 1.0;"/><text fill="#000000" font-family="sans-serif" font-size="13" lengthAdjust="spacingAndGlyphs" textLength="8" x="598.8909" y="563.612">1</text><text fill="#000000" font-family="sans-serif" font-size="13" lengthAdjust="spacingAndGlyphs" textLength="23" x="1038.8935" y="522.3482">1..*</text><!--MD5=[3fb03004f687adcfc695220fdd65ad26]
link Anuncio to TipoRegimento--><path d="M452.13,251.5866 C536.0742,224.9758 674.2336,183.6914 796,159 C882.3543,141.4893 983.0413,129.8924 1049.9548,123.4041 " fill="none" id="Anuncio-TipoRegimento" style="stroke: #A80036; stroke-width: 1.0;"/><text fill="#000000" font-family="sans-serif" font-size="13" lengthAdjust="spacingAndGlyphs" textLength="74" x="650" y="161.0669">rege-se por</text><polygon fill="#000000" points="727,155.0664,733,158.0664,727,161.0664,727,155.0664" style="stroke: #000000; stroke-width: 1.0;"/><text fill="#000000" font-family="sans-serif" font-size="13" lengthAdjust="spacingAndGlyphs" textLength="7" x="460.1162" y="261.9051">*</text><text fill="#000000" font-family="sans-serif" font-size="13" lengthAdjust="spacingAndGlyphs" textLength="8" x="1033.8548" y="120.385">1</text><!--MD5=[0a535575571876f6213287bf563a867d]
link Anuncio to Colaborador--><path d="M400.181,335.5458 C418.1064,369.1733 445.3981,408.9831 482,431 C531.9638,461.0544 923.9654,490.4047 1069.9568,500.4008 " fill="none" id="Anuncio-Colaborador" style="stroke: #A80036; stroke-width: 1.0;"/><text fill="#000000" font-family="sans-serif" font-size="13" lengthAdjust="spacingAndGlyphs" textLength="86" x="644" y="455.0669">publicado por</text><polygon fill="#000000" points="733,449.0664,739,452.0664,733,455.0664,733,449.0664" style="stroke: #000000; stroke-width: 1.0;"/><text fill="#000000" font-family="sans-serif" font-size="13" lengthAdjust="spacingAndGlyphs" textLength="7" x="395.7457" y="355.2669">*</text><text fill="#000000" font-family="sans-serif" font-size="13" lengthAdjust="spacingAndGlyphs" textLength="8" x="1054.0901" y="495.9705">1</text><!--MD5=[27b52c98fcb5387c047ce09b42fcb62d]
link Anuncio to Candidatura--><path d="M452.3537,310.0037 C535.6304,343.3743 672.4437,392.6964 796,412 C998.9415,443.7062 1239.7282,387.8143 1358.7588,353.9937 " fill="none" id="Anuncio-Candidatura" style="stroke: #A80036; stroke-width: 1.0;"/><text fill="#000000" font-family="sans-serif" font-size="13" lengthAdjust="spacingAndGlyphs" textLength="44" x="872.5" y="408.0669">recebe</text><polygon fill="#000000" points="919.5,402.0664,925.5,405.0664,919.5,408.0664,919.5,402.0664" style="stroke: #000000; stroke-width: 1.0;"/><text fill="#000000" font-family="sans-serif" font-size="13" lengthAdjust="spacingAndGlyphs" textLength="8" x="459.8996" y="325.8186">1</text><text fill="#000000" font-family="sans-serif" font-size="13" lengthAdjust="spacingAndGlyphs" textLength="7" x="1344.1062" y="369.0677">*</text><!--MD5=[02d330b3691aaed85c2b7230cc23c1df]
link Anuncio to ProcessoSeriacao--><path d="M452.1283,277 C503.4902,277 570.3922,277 620.7316,277 " fill="none" id="Anuncio-ProcessoSeriacao" style="stroke: #A80036; stroke-width: 1.0;"/><text fill="#000000" font-family="sans-serif" font-size="13" lengthAdjust="spacingAndGlyphs" textLength="55" x="502.5" y="273.0669">espoleta</text><polygon fill="#000000" points="560.5,267.0664,566.5,270.0664,560.5,273.0664,560.5,267.0664" style="stroke: #000000; stroke-width: 1.0;"/><text fill="#000000" font-family="sans-serif" font-size="13" lengthAdjust="spacingAndGlyphs" textLength="8" x="459.9085" y="289.7963">1</text><text fill="#000000" font-family="sans-serif" font-size="13" lengthAdjust="spacingAndGlyphs" textLength="24" x="588.917" y="289.7734">0..1</text><!--MD5=[a66e767a4304f5fa76db98d7839a7a61]
link Candidatura to Freelancer--><path d="M1507.0922,279.2406 C1556.8642,244.4707 1621.1162,199.5855 1664.9344,168.9749 " fill="none" id="Candidatura-Freelancer" style="stroke: #A80036; stroke-width: 1.0;"/><text fill="#000000" font-family="sans-serif" font-size="13" lengthAdjust="spacingAndGlyphs" textLength="83" x="1538" y="188.0669">realizada por</text><polygon fill="#000000" points="1624,182.0664,1630,185.0664,1624,188.0664,1624,182.0664" style="stroke: #000000; stroke-width: 1.0;"/><text fill="#000000" font-family="sans-serif" font-size="13" lengthAdjust="spacingAndGlyphs" textLength="7" x="1515.0939" y="286.7489">*</text><text fill="#000000" font-family="sans-serif" font-size="13" lengthAdjust="spacingAndGlyphs" textLength="8" x="1648.9935" y="187.274">1</text><!--MD5=[577fefe1351fe0f89ea5388d9641a019]
link ProcessoSeriacao to TipoRegimento--><path d="M730.7574,250.3035 C749.5052,238.0754 773.0738,224.4546 796,216 C884.8461,183.2358 916.3905,210.6144 1006,180 C1028.1587,172.4297 1051.1822,161.0938 1070.9766,150.1157 " fill="none" id="ProcessoSeriacao-TipoRegimento" style="stroke: #A80036; stroke-width: 1.0;"/><text fill="#000000" font-family="sans-serif" font-size="13" lengthAdjust="spacingAndGlyphs" textLength="195" x="797" y="176.0669">decorre em concordância com</text><polygon fill="#000000" points="995,170.0664,1001,173.0664,995,176.0664,995,170.0664" style="stroke: #000000; stroke-width: 1.0;"/><text fill="#000000" font-family="sans-serif" font-size="13" lengthAdjust="spacingAndGlyphs" textLength="7" x="731.5638" y="239.5004">*</text><text fill="#000000" font-family="sans-serif" font-size="13" lengthAdjust="spacingAndGlyphs" textLength="8" x="1052.3707" y="169.7194">1</text><!--MD5=[d8cba5363504d1c2665cc78c5e9b9c32]
link ProcessoSeriacao to Colaborador--><path d="M730.3588,303.7836 C749.2017,316.3797 772.9692,330.6501 796,340 C884.618,375.9766 922.0478,341.1798 1006,387 C1038.2291,404.5903 1067.6448,433.5225 1089.1066,458.2141 " fill="none" id="ProcessoSeriacao-Colaborador" style="stroke: #A80036; stroke-width: 1.0;"/><text fill="#000000" font-family="sans-serif" font-size="13" lengthAdjust="spacingAndGlyphs" textLength="83" x="853" y="336.0669">realizado por</text><polygon fill="#000000" points="939,330.0664,945,333.0664,939,336.0664,939,330.0664" style="stroke: #000000; stroke-width: 1.0;"/><text fill="#000000" font-family="sans-serif" font-size="13" lengthAdjust="spacingAndGlyphs" textLength="8" x="729.5467" y="323.3859">1</text><text fill="#000000" font-family="sans-serif" font-size="13" lengthAdjust="spacingAndGlyphs" textLength="23" x="1059.2191" y="447.4483">1..*</text><!--MD5=[52bd50d7906bad09d4dfcc260d1229dc]
link ProcessoSeriacao to Classificacao--><path d="M766.1995,289.7053 C776.1955,291.2627 786.3406,292.7448 796,294 C891.1517,306.3648 1002.4208,315.8203 1067.9813,320.8802 " fill="none" id="ProcessoSeriacao-Classificacao" style="stroke: #A80036; stroke-width: 1.0;"/><text fill="#000000" font-family="sans-serif" font-size="13" lengthAdjust="spacingAndGlyphs" textLength="44" x="872.5" y="290.0669">resulta</text><polygon fill="#000000" points="919.5,284.0664,925.5,287.0664,919.5,290.0664,919.5,284.0664" style="stroke: #000000; stroke-width: 1.0;"/><text fill="#000000" font-family="sans-serif" font-size="13" lengthAdjust="spacingAndGlyphs" textLength="8" x="774.1091" y="303.8728">1</text><text fill="#000000" font-family="sans-serif" font-size="13" lengthAdjust="spacingAndGlyphs" textLength="7" x="1052.9163" y="333.4234">*</text><!--MD5=[bb0c0a14b5a52e9aa62a43a7a223cdee]
link ProcessoSeriacao to ProcessoAtribuição--><path d="M766.1259,268.0692 C840.4967,258.9238 956.1863,244.6975 1035.8965,234.8956 " fill="none" id="ProcessoSeriacao-ProcessoAtribuição" style="stroke: #A80036; stroke-width: 1.0;"/><text fill="#000000" font-family="sans-serif" font-size="13" lengthAdjust="spacingAndGlyphs" textLength="70" x="859.5" y="235.0669">seguido de</text><polygon fill="#000000" points="932.5,229.0664,938.5,232.0664,932.5,235.0664,932.5,229.0664" style="stroke: #000000; stroke-width: 1.0;"/><text fill="#000000" font-family="sans-serif" font-size="13" lengthAdjust="spacingAndGlyphs" textLength="8" x="774.0279" y="280.0055">1</text><text fill="#000000" font-family="sans-serif" font-size="13" lengthAdjust="spacingAndGlyphs" textLength="8" x="1019.9384" y="248.5313">1</text><!--MD5=[471b8c6ff5fcf31b4b6fb9b4f947344d]
link Classificacao to Candidatura--><path d="M1181.0837,326.1005 C1231.0067,327.0714 1304.1167,328.4934 1358.7324,329.5556 " fill="none" id="Classificacao-Candidatura" style="stroke: #A80036; stroke-width: 1.0;"/><text fill="#000000" font-family="sans-serif" font-size="13" lengthAdjust="spacingAndGlyphs" textLength="71" x="1244" y="323.0669">referente a</text><polygon fill="#000000" points="1318,317.0664,1324,320.0664,1318,323.0664,1318,317.0664" style="stroke: #000000; stroke-width: 1.0;"/><text fill="#000000" font-family="sans-serif" font-size="13" lengthAdjust="spacingAndGlyphs" textLength="24" x="1189.0137" y="339.1808">0..1</text><text fill="#000000" font-family="sans-serif" font-size="13" lengthAdjust="spacingAndGlyphs" textLength="8" x="1343.0279" y="342.224">1</text><!--MD5=[caae096e94a04df081df45430d4c5ad7]
link ProcessoAtribuição to Adjudicação--><path d="M1213.3171,224 C1266.7177,224 1332.9616,224 1378.6644,224 " fill="none" id="ProcessoAtribuição-Adjudicação" style="stroke: #A80036; stroke-width: 1.0;"/><text fill="#000000" font-family="sans-serif" font-size="13" lengthAdjust="spacingAndGlyphs" textLength="44" x="1257.5" y="220.0669">resulta</text><polygon fill="#000000" points="1304.5,214.0664,1310.5,217.0664,1304.5,220.0664,1304.5,214.0664" style="stroke: #000000; stroke-width: 1.0;"/><text fill="#000000" font-family="sans-serif" font-size="13" lengthAdjust="spacingAndGlyphs" textLength="8" x="1221.0035" y="236.6763">1</text><text fill="#000000" font-family="sans-serif" font-size="13" lengthAdjust="spacingAndGlyphs" textLength="8" x="1362.8256" y="237.0836">1</text><!--MD5=[ba2ecf711162241d9106b2bf008602c7]
link ProcessoAtribuição to Freelancer--><path d="M1213.0169,204.6081 C1223.1093,202.6105 1233.2644,200.6951 1243,199 C1396.0008,172.3603 1578.4567,149.8339 1664.868,139.7162 " fill="none" id="ProcessoAtribuição-Freelancer" style="stroke: #A80036; stroke-width: 1.0;"/><text fill="#000000" font-family="sans-serif" font-size="13" lengthAdjust="spacingAndGlyphs" textLength="82" x="1385.5" y="156.0669">atribui tarefa</text><polygon fill="#000000" points="1470.5,150.0664,1476.5,153.0664,1470.5,156.0664,1470.5,150.0664" style="stroke: #000000; stroke-width: 1.0;"/><text fill="#000000" font-family="sans-serif" font-size="13" lengthAdjust="spacingAndGlyphs" textLength="8" x="1220.9676" y="215.6409">1</text><text fill="#000000" font-family="sans-serif" font-size="13" lengthAdjust="spacingAndGlyphs" textLength="8" x="1648.9174" y="153.7179">1</text><!--MD5=[582f83d4166d7492e661426d19fca740]
@startuml
skinparam classAttributeIconSize 0
hide methods
left to right direction

class Plataforma {
  -String designacao
}

class Organizacao {
  -String nome
  -String NIF
  -String website
  -String telefone
  -String email
}

class Colaborador {
  -String nome
  -String funcao
  -String telefone
  -String email
}

class TipoRegimento
{
    -String designacao
    -String descricaoRegras
}


class Freelancer {
    -String nome
    -String NIF
    -String telefone
    -String email
}

class Anuncio
{
    -Date dtInicioPublicitacao
    -Date dtFimPublicitacao
    -Date dtInicioCandidatura
    -Date dtFimCandidatura
    -Date dtInicioSeriacao
    -Date dtFimSeriacao
}

class Candidatura
{
    -Date dataCandidatura
    -Double valorPretendido
    -Integer nrDias
    -String txtApresentacao
    -String txtMotivacao
}

class Classificacao
{
    -Integer lugar
}

class ProcessoSeriacao
{
    -Date dataRealizacao
}
class ProcessoAtribuição
{
    -Date dataInicioRealizacao
    -Date dataFimRealizacao
    -int Valor RemuneratórioFinal
}
class Adjudicação {
}


Plataforma "1" - - "*" Organizacao : tem registadas >
Plataforma "1" - - "*" TipoRegimento : suporta >
Plataforma "1" - - "*" Anuncio : publicita >
Plataforma "1" - - "*" Freelancer : tem/usa  >

Organizacao "1" - - "1..*" Colaborador: tem >

Anuncio "*" - - "1" TipoRegimento: rege-se por >
Anuncio "*" - - "1" Colaborador: publicado por >
Anuncio "1" - - "*" Candidatura: recebe >
Anuncio "1" - - "0..1" ProcessoSeriacao: espoleta >

Candidatura "*" - - "1"  Freelancer: realizada por >

ProcessoSeriacao "*" - - "1" TipoRegimento: decorre em concordância com >
ProcessoSeriacao "1" - - "1..*" Colaborador: realizado por >
ProcessoSeriacao "1" - - "*" Classificacao: resulta >
ProcessoSeriacao "1" - - "1" ProcessoAtribuição: seguido de >

Classificacao "0..1" - - "1" Candidatura: referente a >

ProcessoAtribuição "1" - - "1" Adjudicação: resulta >
ProcessoAtribuição "1" - - "1" Freelancer: atribui tarefa >
@enduml

PlantUML version 1.2019.12(Sun Nov 03 10:24:54 UTC 2019)
(GPL source distribution)
Java Runtime: OpenJDK Runtime Environment
JVM: OpenJDK 64-Bit Server VM
Java Version: 1.8.0_232-heroku-b09
Operating System: Linux
Default Encoding: UTF-8
Language: en
Country: US
--></g></svg>