<?xml version="1.0" encoding="UTF-8" standalone="no"?><svg xmlns="http://www.w3.org/2000/svg" xmlns:xlink="http://www.w3.org/1999/xlink" contentScriptType="application/ecmascript" contentStyleType="text/css" height="471px" preserveAspectRatio="none" style="width:2355px;height:471px;" version="1.1" viewBox="0 0 2355 471" width="2355px" zoomAndPan="magnify"><defs><filter height="300%" id="fgowsnmk9spw1" width="300%" x="-1" y="-1"><feGaussianBlur result="blurOut" stdDeviation="2.0"/><feColorMatrix in="blurOut" result="blurOut2" type="matrix" values="0 0 0 0 0 0 0 0 0 0 0 0 0 0 0 0 0 0 .4 0"/><feOffset dx="4.0" dy="4.0" in="blurOut2" result="blurOut3"/><feBlend in="SourceGraphic" in2="blurOut3" mode="normal"/></filter></defs><g><!--MD5=[2e5b00156b99bca2b81797457bdc22ba]
class RetirarCandidaturaSubmetidaUI--><rect fill="#FEFECE" filter="url(#fgowsnmk9spw1)" height="48" id="RetirarCandidaturaSubmetidaUI" style="stroke: #A80036; stroke-width: 1.5;" width="230" x="6" y="208"/><ellipse cx="21" cy="224" fill="#ADD1B2" rx="11" ry="11" style="stroke: #A80036; stroke-width: 1.0;"/><path d="M23.9688,229.6406 Q23.3906,229.9375 22.75,230.0859 Q22.1094,230.2344 21.4063,230.2344 Q18.9063,230.2344 17.5859,228.5859 Q16.2656,226.9375 16.2656,223.8125 Q16.2656,220.6875 17.5859,219.0313 Q18.9063,217.375 21.4063,217.375 Q22.1094,217.375 22.7578,217.5313 Q23.4063,217.6875 23.9688,217.9844 L23.9688,220.7031 Q23.3438,220.125 22.75,219.8516 Q22.1563,219.5781 21.5313,219.5781 Q20.1875,219.5781 19.5,220.6484 Q18.8125,221.7188 18.8125,223.8125 Q18.8125,225.9063 19.5,226.9766 Q20.1875,228.0469 21.5313,228.0469 Q22.1563,228.0469 22.75,227.7734 Q23.3438,227.5 23.9688,226.9219 L23.9688,229.6406 Z "/><text fill="#000000" font-family="sans-serif" font-size="12" lengthAdjust="spacingAndGlyphs" textLength="198" x="35" y="228.1543">RetirarCandidaturaSubmetidaUI</text><line style="stroke: #A80036; stroke-width: 1.5;" x1="7" x2="235" y1="240" y2="240"/><line style="stroke: #A80036; stroke-width: 1.5;" x1="7" x2="235" y1="248" y2="248"/><!--MD5=[3c496ffde4446f81a80fb3fee87a8ec1]
class RetirarCandidaturaSubmetidaController--><rect fill="#FEFECE" filter="url(#fgowsnmk9spw1)" height="86.4141" id="RetirarCandidaturaSubmetidaController" style="stroke: #A80036; stroke-width: 1.5;" width="301" x="297" y="189"/><ellipse cx="321.9" cy="205" fill="#ADD1B2" rx="11" ry="11" style="stroke: #A80036; stroke-width: 1.0;"/><path d="M324.8688,210.6406 Q324.2906,210.9375 323.65,211.0859 Q323.0094,211.2344 322.3063,211.2344 Q319.8063,211.2344 318.4859,209.5859 Q317.1656,207.9375 317.1656,204.8125 Q317.1656,201.6875 318.4859,200.0313 Q319.8063,198.375 322.3063,198.375 Q323.0094,198.375 323.6578,198.5313 Q324.3063,198.6875 324.8688,198.9844 L324.8688,201.7031 Q324.2438,201.125 323.65,200.8516 Q323.0563,200.5781 322.4313,200.5781 Q321.0875,200.5781 320.4,201.6484 Q319.7125,202.7188 319.7125,204.8125 Q319.7125,206.9063 320.4,207.9766 Q321.0875,209.0469 322.4313,209.0469 Q323.0563,209.0469 323.65,208.7734 Q324.2438,208.5 324.8688,207.9219 L324.8688,210.6406 Z "/><text fill="#000000" font-family="sans-serif" font-size="12" lengthAdjust="spacingAndGlyphs" textLength="247" x="338.1" y="209.1543">RetirarCandidaturaSubmetidaController</text><line style="stroke: #A80036; stroke-width: 1.5;" x1="298" x2="597" y1="221" y2="221"/><line style="stroke: #A80036; stroke-width: 1.5;" x1="298" x2="597" y1="229" y2="229"/><text fill="#000000" font-family="sans-serif" font-size="11" lengthAdjust="spacingAndGlyphs" textLength="289" x="303" y="243.2104">+getAnunciosElegiveisParaRemocaoDoFreelancer()</text><text fill="#000000" font-family="sans-serif" font-size="11" lengthAdjust="spacingAndGlyphs" textLength="104" x="303" y="256.0151">+getCandidatura()</text><text fill="#000000" font-family="sans-serif" font-size="11" lengthAdjust="spacingAndGlyphs" textLength="127" x="303" y="268.8198">+eliminaCandidatura()</text><!--MD5=[380d12a68ed0046a60f31008a02875d0]
class AplicacaoPOT--><rect fill="#FEFECE" filter="url(#fgowsnmk9spw1)" height="73.6094" id="AplicacaoPOT" style="stroke: #A80036; stroke-width: 1.5;" width="130" x="668" y="8"/><ellipse cx="689.3" cy="24" fill="#ADD1B2" rx="11" ry="11" style="stroke: #A80036; stroke-width: 1.0;"/><path d="M692.2688,29.6406 Q691.6906,29.9375 691.05,30.0859 Q690.4094,30.2344 689.7063,30.2344 Q687.2063,30.2344 685.8859,28.5859 Q684.5656,26.9375 684.5656,23.8125 Q684.5656,20.6875 685.8859,19.0313 Q687.2063,17.375 689.7063,17.375 Q690.4094,17.375 691.0578,17.5313 Q691.7063,17.6875 692.2688,17.9844 L692.2688,20.7031 Q691.6438,20.125 691.05,19.8516 Q690.4563,19.5781 689.8313,19.5781 Q688.4875,19.5781 687.8,20.6484 Q687.1125,21.7188 687.1125,23.8125 Q687.1125,25.9063 687.8,26.9766 Q688.4875,28.0469 689.8313,28.0469 Q690.4563,28.0469 691.05,27.7734 Q691.6438,27.5 692.2688,26.9219 L692.2688,29.6406 Z "/><text fill="#000000" font-family="sans-serif" font-size="12" lengthAdjust="spacingAndGlyphs" textLength="84" x="704.7" y="28.1543">AplicacaoPOT</text><line style="stroke: #A80036; stroke-width: 1.5;" x1="669" x2="797" y1="40" y2="40"/><line style="stroke: #A80036; stroke-width: 1.5;" x1="669" x2="797" y1="48" y2="48"/><text fill="#000000" font-family="sans-serif" font-size="11" lengthAdjust="spacingAndGlyphs" textLength="118" x="674" y="62.2104">+static getInstance()</text><text fill="#000000" font-family="sans-serif" font-size="11" lengthAdjust="spacingAndGlyphs" textLength="106" x="674" y="75.0151">+getSessaoAtual()</text><!--MD5=[1e13576e8c070e32200b62ceaa1f39ec]
class SessaoUtilizador--><rect fill="#FEFECE" filter="url(#fgowsnmk9spw1)" height="60.8047" id="SessaoUtilizador" style="stroke: #A80036; stroke-width: 1.5;" width="135" x="665.5" y="117.5"/><ellipse cx="680.5" cy="133.5" fill="#ADD1B2" rx="11" ry="11" style="stroke: #A80036; stroke-width: 1.0;"/><path d="M683.4688,139.1406 Q682.8906,139.4375 682.25,139.5859 Q681.6094,139.7344 680.9063,139.7344 Q678.4063,139.7344 677.0859,138.0859 Q675.7656,136.4375 675.7656,133.3125 Q675.7656,130.1875 677.0859,128.5313 Q678.4063,126.875 680.9063,126.875 Q681.6094,126.875 682.2578,127.0313 Q682.9063,127.1875 683.4688,127.4844 L683.4688,130.2031 Q682.8438,129.625 682.25,129.3516 Q681.6563,129.0781 681.0313,129.0781 Q679.6875,129.0781 679,130.1484 Q678.3125,131.2188 678.3125,133.3125 Q678.3125,135.4063 679,136.4766 Q679.6875,137.5469 681.0313,137.5469 Q681.6563,137.5469 682.25,137.2734 Q682.8438,137 683.4688,136.4219 L683.4688,139.1406 Z "/><text fill="#000000" font-family="sans-serif" font-size="12" lengthAdjust="spacingAndGlyphs" textLength="103" x="694.5" y="137.6543">SessaoUtilizador</text><line style="stroke: #A80036; stroke-width: 1.5;" x1="666.5" x2="799.5" y1="149.5" y2="149.5"/><line style="stroke: #A80036; stroke-width: 1.5;" x1="666.5" x2="799.5" y1="157.5" y2="157.5"/><text fill="#000000" font-family="sans-serif" font-size="11" lengthAdjust="spacingAndGlyphs" textLength="118" x="671.5" y="171.7104">+getEmailUtilizador()</text><!--MD5=[ecaed46f78f8cfe1e9ce18477649be18]
class Plataforma--><rect fill="#FEFECE" filter="url(#fgowsnmk9spw1)" height="86.4141" id="Plataforma" style="stroke: #A80036; stroke-width: 1.5;" width="148" x="659" y="285"/><ellipse cx="695.6" cy="301" fill="#ADD1B2" rx="11" ry="11" style="stroke: #A80036; stroke-width: 1.0;"/><path d="M698.5688,306.6406 Q697.9906,306.9375 697.35,307.0859 Q696.7094,307.2344 696.0063,307.2344 Q693.5063,307.2344 692.1859,305.5859 Q690.8656,303.9375 690.8656,300.8125 Q690.8656,297.6875 692.1859,296.0313 Q693.5063,294.375 696.0063,294.375 Q696.7094,294.375 697.3578,294.5313 Q698.0063,294.6875 698.5688,294.9844 L698.5688,297.7031 Q697.9438,297.125 697.35,296.8516 Q696.7563,296.5781 696.1313,296.5781 Q694.7875,296.5781 694.1,297.6484 Q693.4125,298.7188 693.4125,300.8125 Q693.4125,302.9063 694.1,303.9766 Q694.7875,305.0469 696.1313,305.0469 Q696.7563,305.0469 697.35,304.7734 Q697.9438,304.5 698.5688,303.9219 L698.5688,306.6406 Z "/><text fill="#000000" font-family="sans-serif" font-size="12" lengthAdjust="spacingAndGlyphs" textLength="68" x="714.4" y="305.1543">Plataforma</text><line style="stroke: #A80036; stroke-width: 1.5;" x1="660" x2="806" y1="317" y2="317"/><text fill="#000000" font-family="sans-serif" font-size="11" lengthAdjust="spacingAndGlyphs" textLength="107" x="665" y="331.2104">-String designacao</text><text fill="#000000" font-family="sans-serif" font-size="11" lengthAdjust="spacingAndGlyphs" textLength="136" x="665" y="344.0151">+getRegistoFreelancers</text><line style="stroke: #A80036; stroke-width: 1.5;" x1="660" x2="806" y1="350.6094" y2="350.6094"/><text fill="#000000" font-family="sans-serif" font-size="11" lengthAdjust="spacingAndGlyphs" textLength="128" x="665" y="364.8198">+getRegistoAnuncios()</text><!--MD5=[5989a2e3174efcfc62cf38168ac2ffc8]
class RegistoFreelancer--><rect fill="#FEFECE" filter="url(#fgowsnmk9spw1)" height="60.8047" id="RegistoFreelancer" style="stroke: #A80036; stroke-width: 1.5;" width="183" x="982" y="226.5"/><ellipse cx="1013.65" cy="242.5" fill="#ADD1B2" rx="11" ry="11" style="stroke: #A80036; stroke-width: 1.0;"/><path d="M1016.6188,248.1406 Q1016.0406,248.4375 1015.4,248.5859 Q1014.7594,248.7344 1014.0563,248.7344 Q1011.5563,248.7344 1010.2359,247.0859 Q1008.9156,245.4375 1008.9156,242.3125 Q1008.9156,239.1875 1010.2359,237.5313 Q1011.5563,235.875 1014.0563,235.875 Q1014.7594,235.875 1015.4078,236.0313 Q1016.0563,236.1875 1016.6188,236.4844 L1016.6188,239.2031 Q1015.9938,238.625 1015.4,238.3516 Q1014.8063,238.0781 1014.1813,238.0781 Q1012.8375,238.0781 1012.15,239.1484 Q1011.4625,240.2188 1011.4625,242.3125 Q1011.4625,244.4063 1012.15,245.4766 Q1012.8375,246.5469 1014.1813,246.5469 Q1014.8063,246.5469 1015.4,246.2734 Q1015.9938,246 1016.6188,245.4219 L1016.6188,248.1406 Z "/><text fill="#000000" font-family="sans-serif" font-size="12" lengthAdjust="spacingAndGlyphs" textLength="114" x="1031.35" y="246.6543">RegistoFreelancer</text><line style="stroke: #A80036; stroke-width: 1.5;" x1="983" x2="1164" y1="258.5" y2="258.5"/><line style="stroke: #A80036; stroke-width: 1.5;" x1="983" x2="1164" y1="266.5" y2="266.5"/><text fill="#000000" font-family="sans-serif" font-size="11" lengthAdjust="spacingAndGlyphs" textLength="171" x="988" y="280.7104">+getFreelancerByEmail(email)</text><!--MD5=[a7dddfa65532da486ef518ad0cedfd89]
class RegistoAnuncios--><rect fill="#FEFECE" filter="url(#fgowsnmk9spw1)" height="73.6094" id="RegistoAnuncios" style="stroke: #A80036; stroke-width: 1.5;" width="327" x="910" y="348"/><ellipse cx="1017.25" cy="364" fill="#ADD1B2" rx="11" ry="11" style="stroke: #A80036; stroke-width: 1.0;"/><path d="M1020.2188,369.6406 Q1019.6406,369.9375 1019,370.0859 Q1018.3594,370.2344 1017.6563,370.2344 Q1015.1563,370.2344 1013.8359,368.5859 Q1012.5156,366.9375 1012.5156,363.8125 Q1012.5156,360.6875 1013.8359,359.0313 Q1015.1563,357.375 1017.6563,357.375 Q1018.3594,357.375 1019.0078,357.5313 Q1019.6563,357.6875 1020.2188,357.9844 L1020.2188,360.7031 Q1019.5938,360.125 1019,359.8516 Q1018.4063,359.5781 1017.7813,359.5781 Q1016.4375,359.5781 1015.75,360.6484 Q1015.0625,361.7188 1015.0625,363.8125 Q1015.0625,365.9063 1015.75,366.9766 Q1016.4375,368.0469 1017.7813,368.0469 Q1018.4063,368.0469 1019,367.7734 Q1019.5938,367.5 1020.2188,366.9219 L1020.2188,369.6406 Z "/><text fill="#000000" font-family="sans-serif" font-size="12" lengthAdjust="spacingAndGlyphs" textLength="104" x="1037.75" y="368.1543">RegistoAnuncios</text><line style="stroke: #A80036; stroke-width: 1.5;" x1="911" x2="1236" y1="380" y2="380"/><line style="stroke: #A80036; stroke-width: 1.5;" x1="911" x2="1236" y1="388" y2="388"/><text fill="#000000" font-family="sans-serif" font-size="11" lengthAdjust="spacingAndGlyphs" textLength="315" x="916" y="402.2104">+getAnunciosElegiveisParaRemocaoDoFreelancer(freel)</text><text fill="#000000" font-family="sans-serif" font-size="11" lengthAdjust="spacingAndGlyphs" textLength="157" x="916" y="415.0151">+getAnuncioById(anuncioId)</text><!--MD5=[1f687b5315377fe49fca59b457947463]
class Freelancer--><rect fill="#FEFECE" filter="url(#fgowsnmk9spw1)" height="99.2188" id="Freelancer" style="stroke: #A80036; stroke-width: 1.5;" width="100" x="2244" y="261.5"/><ellipse cx="2259.45" cy="277.5" fill="#ADD1B2" rx="11" ry="11" style="stroke: #A80036; stroke-width: 1.0;"/><path d="M2262.4188,283.1406 Q2261.8406,283.4375 2261.2,283.5859 Q2260.5594,283.7344 2259.8563,283.7344 Q2257.3563,283.7344 2256.0359,282.0859 Q2254.7156,280.4375 2254.7156,277.3125 Q2254.7156,274.1875 2256.0359,272.5313 Q2257.3563,270.875 2259.8563,270.875 Q2260.5594,270.875 2261.2078,271.0313 Q2261.8563,271.1875 2262.4188,271.4844 L2262.4188,274.2031 Q2261.7938,273.625 2261.2,273.3516 Q2260.6063,273.0781 2259.9813,273.0781 Q2258.6375,273.0781 2257.95,274.1484 Q2257.2625,275.2188 2257.2625,277.3125 Q2257.2625,279.4063 2257.95,280.4766 Q2258.6375,281.5469 2259.9813,281.5469 Q2260.6063,281.5469 2261.2,281.2734 Q2261.7938,281 2262.4188,280.4219 L2262.4188,283.1406 Z "/><text fill="#000000" font-family="sans-serif" font-size="12" lengthAdjust="spacingAndGlyphs" textLength="67" x="2273.55" y="281.6543">Freelancer</text><line style="stroke: #A80036; stroke-width: 1.5;" x1="2245" x2="2343" y1="293.5" y2="293.5"/><text fill="#000000" font-family="sans-serif" font-size="11" lengthAdjust="spacingAndGlyphs" textLength="74" x="2250" y="307.7104">-String nome</text><text fill="#000000" font-family="sans-serif" font-size="11" lengthAdjust="spacingAndGlyphs" textLength="59" x="2250" y="320.5151">-String NIF</text><text fill="#000000" font-family="sans-serif" font-size="11" lengthAdjust="spacingAndGlyphs" textLength="88" x="2250" y="333.3198">-String telefone</text><text fill="#000000" font-family="sans-serif" font-size="11" lengthAdjust="spacingAndGlyphs" textLength="73" x="2250" y="346.1245">-String email</text><line style="stroke: #A80036; stroke-width: 1.5;" x1="2245" x2="2343" y1="352.7188" y2="352.7188"/><!--MD5=[19db0db7353a4bf63eefc676e5ba9b80]
class Anuncio--><rect fill="#FEFECE" filter="url(#fgowsnmk9spw1)" height="150.4375" id="Anuncio" style="stroke: #A80036; stroke-width: 1.5;" width="166" x="1344" y="310"/><ellipse cx="1397.75" cy="326" fill="#ADD1B2" rx="11" ry="11" style="stroke: #A80036; stroke-width: 1.0;"/><path d="M1400.7188,331.6406 Q1400.1406,331.9375 1399.5,332.0859 Q1398.8594,332.2344 1398.1563,332.2344 Q1395.6563,332.2344 1394.3359,330.5859 Q1393.0156,328.9375 1393.0156,325.8125 Q1393.0156,322.6875 1394.3359,321.0313 Q1395.6563,319.375 1398.1563,319.375 Q1398.8594,319.375 1399.5078,319.5313 Q1400.1563,319.6875 1400.7188,319.9844 L1400.7188,322.7031 Q1400.0938,322.125 1399.5,321.8516 Q1398.9063,321.5781 1398.2813,321.5781 Q1396.9375,321.5781 1396.25,322.6484 Q1395.5625,323.7188 1395.5625,325.8125 Q1395.5625,327.9063 1396.25,328.9766 Q1396.9375,330.0469 1398.2813,330.0469 Q1398.9063,330.0469 1399.5,329.7734 Q1400.0938,329.5 1400.7188,328.9219 L1400.7188,331.6406 Z "/><text fill="#000000" font-family="sans-serif" font-size="12" lengthAdjust="spacingAndGlyphs" textLength="50" x="1418.25" y="330.1543">Anuncio</text><line style="stroke: #A80036; stroke-width: 1.5;" x1="1345" x2="1509" y1="342" y2="342"/><text fill="#000000" font-family="sans-serif" font-size="11" lengthAdjust="spacingAndGlyphs" textLength="141" x="1350" y="356.2104">-Date dtInicioPublicitacao</text><text fill="#000000" font-family="sans-serif" font-size="11" lengthAdjust="spacingAndGlyphs" textLength="132" x="1350" y="369.0151">-Date dtFimPublicitacao</text><text fill="#000000" font-family="sans-serif" font-size="11" lengthAdjust="spacingAndGlyphs" textLength="143" x="1350" y="381.8198">-Date dtInicioCandidatura</text><text fill="#000000" font-family="sans-serif" font-size="11" lengthAdjust="spacingAndGlyphs" textLength="134" x="1350" y="394.6245">-Date dtFimCandidatura</text><text fill="#000000" font-family="sans-serif" font-size="11" lengthAdjust="spacingAndGlyphs" textLength="124" x="1350" y="407.4292">-Date dtInicioSeriacao</text><text fill="#000000" font-family="sans-serif" font-size="11" lengthAdjust="spacingAndGlyphs" textLength="115" x="1350" y="420.2339">-Date dtFimSeriacao</text><line style="stroke: #A80036; stroke-width: 1.5;" x1="1345" x2="1509" y1="426.8281" y2="426.8281"/><text fill="#000000" font-family="sans-serif" font-size="11" lengthAdjust="spacingAndGlyphs" textLength="138" x="1350" y="441.0386">+getListaCandidaturas()</text><text fill="#000000" font-family="sans-serif" font-size="11" lengthAdjust="spacingAndGlyphs" textLength="154" x="1350" y="453.8433">+eliminaCandidatura(cand)</text><!--MD5=[ced2a86ae8bdfec1c757b7c305a75b1d]
class ListaCandidaturas--><rect fill="#FEFECE" filter="url(#fgowsnmk9spw1)" height="86.4141" id="ListaCandidaturas" style="stroke: #A80036; stroke-width: 1.5;" width="216" x="1613" y="331"/><ellipse cx="1660.25" cy="347" fill="#ADD1B2" rx="11" ry="11" style="stroke: #A80036; stroke-width: 1.0;"/><path d="M1663.2188,352.6406 Q1662.6406,352.9375 1662,353.0859 Q1661.3594,353.2344 1660.6563,353.2344 Q1658.1563,353.2344 1656.8359,351.5859 Q1655.5156,349.9375 1655.5156,346.8125 Q1655.5156,343.6875 1656.8359,342.0313 Q1658.1563,340.375 1660.6563,340.375 Q1661.3594,340.375 1662.0078,340.5313 Q1662.6563,340.6875 1663.2188,340.9844 L1663.2188,343.7031 Q1662.5938,343.125 1662,342.8516 Q1661.4063,342.5781 1660.7813,342.5781 Q1659.4375,342.5781 1658.75,343.6484 Q1658.0625,344.7188 1658.0625,346.8125 Q1658.0625,348.9063 1658.75,349.9766 Q1659.4375,351.0469 1660.7813,351.0469 Q1661.4063,351.0469 1662,350.7734 Q1662.5938,350.5 1663.2188,349.9219 L1663.2188,352.6406 Z "/><text fill="#000000" font-family="sans-serif" font-size="12" lengthAdjust="spacingAndGlyphs" textLength="113" x="1680.75" y="351.1543">ListaCandidaturas</text><line style="stroke: #A80036; stroke-width: 1.5;" x1="1614" x2="1828" y1="363" y2="363"/><line style="stroke: #A80036; stroke-width: 1.5;" x1="1614" x2="1828" y1="371" y2="371"/><text fill="#000000" font-family="sans-serif" font-size="11" lengthAdjust="spacingAndGlyphs" textLength="204" x="1619" y="385.2104">+getCandidaturaByFreelancer(freel)</text><text fill="#000000" font-family="sans-serif" font-size="11" lengthAdjust="spacingAndGlyphs" textLength="154" x="1619" y="398.0151">+eliminaCandidatura(cand)</text><text fill="#000000" font-family="sans-serif" font-size="11" lengthAdjust="spacingAndGlyphs" textLength="151" x="1619" y="410.8198">-removeCandidatura(cand)</text><!--MD5=[475c5b924ed41035684e2831311827d2]
class Candidatura--><rect fill="#FEFECE" filter="url(#fgowsnmk9spw1)" height="112.0234" id="Candidatura" style="stroke: #A80036; stroke-width: 1.5;" width="148" x="1936" y="311"/><ellipse cx="1968.55" cy="327" fill="#ADD1B2" rx="11" ry="11" style="stroke: #A80036; stroke-width: 1.0;"/><path d="M1971.5188,332.6406 Q1970.9406,332.9375 1970.3,333.0859 Q1969.6594,333.2344 1968.9563,333.2344 Q1966.4563,333.2344 1965.1359,331.5859 Q1963.8156,329.9375 1963.8156,326.8125 Q1963.8156,323.6875 1965.1359,322.0313 Q1966.4563,320.375 1968.9563,320.375 Q1969.6594,320.375 1970.3078,320.5313 Q1970.9563,320.6875 1971.5188,320.9844 L1971.5188,323.7031 Q1970.8938,323.125 1970.3,322.8516 Q1969.7063,322.5781 1969.0813,322.5781 Q1967.7375,322.5781 1967.05,323.6484 Q1966.3625,324.7188 1966.3625,326.8125 Q1966.3625,328.9063 1967.05,329.9766 Q1967.7375,331.0469 1969.0813,331.0469 Q1969.7063,331.0469 1970.3,330.7734 Q1970.8938,330.5 1971.5188,329.9219 L1971.5188,332.6406 Z "/><text fill="#000000" font-family="sans-serif" font-size="12" lengthAdjust="spacingAndGlyphs" textLength="77" x="1986.45" y="331.1543">Candidatura</text><line style="stroke: #A80036; stroke-width: 1.5;" x1="1937" x2="2083" y1="343" y2="343"/><text fill="#000000" font-family="sans-serif" font-size="11" lengthAdjust="spacingAndGlyphs" textLength="128" x="1942" y="357.2104">-Date dataCandidatura</text><text fill="#000000" font-family="sans-serif" font-size="11" lengthAdjust="spacingAndGlyphs" textLength="136" x="1942" y="370.0151">-Double valorPretendido</text><text fill="#000000" font-family="sans-serif" font-size="11" lengthAdjust="spacingAndGlyphs" textLength="85" x="1942" y="382.8198">-Integer nrDias</text><text fill="#000000" font-family="sans-serif" font-size="11" lengthAdjust="spacingAndGlyphs" textLength="134" x="1942" y="395.6245">-String txtApresentacao</text><text fill="#000000" font-family="sans-serif" font-size="11" lengthAdjust="spacingAndGlyphs" textLength="112" x="1942" y="408.4292">-String txtMotivacao</text><line style="stroke: #A80036; stroke-width: 1.5;" x1="1937" x2="2083" y1="415.0234" y2="415.0234"/><!--MD5=[fb3f7a06593044cec85e75722e723c79]
link RetirarCandidaturaSubmetidaUI to RetirarCandidaturaSubmetidaController--><path d="M236.1117,232 C254.0683,232 272.8782,232 291.5602,232 " fill="none" id="RetirarCandidaturaSubmetidaUI-&gt;RetirarCandidaturaSubmetidaController" style="stroke: #A80036; stroke-width: 1.0; stroke-dasharray: 7.0,7.0;"/><polygon fill="#A80036" points="296.8253,232,287.8253,228,291.8253,232,287.8253,236,296.8253,232" style="stroke: #A80036; stroke-width: 1.0;"/><!--MD5=[19cf2e40850d68e00702ab8c2eecddb8]
link RetirarCandidaturaSubmetidaController to Plataforma--><path d="M575.6353,275.0858 C602.3182,284.058 629.6893,293.2616 653.9669,301.4249 " fill="none" id="RetirarCandidaturaSubmetidaController-&gt;Plataforma" style="stroke: #A80036; stroke-width: 1.0; stroke-dasharray: 7.0,7.0;"/><polygon fill="#A80036" points="658.78,303.0434,651.5244,296.3834,654.0408,301.4497,648.9745,303.9661,658.78,303.0434" style="stroke: #A80036; stroke-width: 1.0;"/><!--MD5=[8e4cd207873103b5151221dc0ab93cd4]
link RetirarCandidaturaSubmetidaController to RegistoFreelancer--><path d="M598.2392,238.0199 C715.8234,242.7158 875.6358,249.0981 976.6826,253.1335 " fill="none" id="RetirarCandidaturaSubmetidaController-&gt;RegistoFreelancer" style="stroke: #A80036; stroke-width: 1.0; stroke-dasharray: 7.0,7.0;"/><polygon fill="#A80036" points="981.7494,253.3358,972.9162,248.9798,976.7534,253.1362,972.5969,256.9734,981.7494,253.3358" style="stroke: #A80036; stroke-width: 1.0;"/><!--MD5=[6450b4d405c76e0d36bea03faae157b0]
link RetirarCandidaturaSubmetidaController to RegistoAnuncios--><path d="M488.4786,275.2715 C527.9542,313.5481 591.4841,366.6797 659,389 C737.0592,414.8059 827.9951,416.7831 904.77,411.0599 " fill="none" id="RetirarCandidaturaSubmetidaController-&gt;RegistoAnuncios" style="stroke: #A80036; stroke-width: 1.0; stroke-dasharray: 7.0,7.0;"/><polygon fill="#A80036" points="909.8063,410.672,900.5256,407.3753,904.8211,411.0561,901.1402,415.3516,909.8063,410.672" style="stroke: #A80036; stroke-width: 1.0;"/><!--MD5=[d62d8dafa3f1147c844e32788420f40f]
link RetirarCandidaturaSubmetidaController to AplicacaoPOT--><path d="M513.3579,188.8636 C561.0579,157.6206 625.0846,115.6837 671.6981,85.1522 " fill="none" id="RetirarCandidaturaSubmetidaController-&gt;AplicacaoPOT" style="stroke: #A80036; stroke-width: 1.0; stroke-dasharray: 7.0,7.0;"/><polygon fill="#A80036" points="676.1536,82.2339,666.4332,83.8192,671.971,84.9736,670.8166,90.5114,676.1536,82.2339" style="stroke: #A80036; stroke-width: 1.0;"/><!--MD5=[e4d4220680214bfae7dbbcea44c7496d]
link RetirarCandidaturaSubmetidaController to SessaoUtilizador--><path d="M594.0135,188.8927 C617.082,182.1055 640.0194,175.3568 660.4137,169.3564 " fill="none" id="RetirarCandidaturaSubmetidaController-&gt;SessaoUtilizador" style="stroke: #A80036; stroke-width: 1.0; stroke-dasharray: 7.0,7.0;"/><polygon fill="#A80036" points="665.2684,167.928,655.5053,166.6313,660.4718,169.3395,657.7636,174.3059,665.2684,167.928" style="stroke: #A80036; stroke-width: 1.0;"/><!--MD5=[463821f61fd53759657c2ac769a7e835]
link Plataforma to RegistoAnuncios--><path d="M807.3034,340.4385 C836.2122,345.2778 870.6009,351.0345 904.9003,356.7763 " fill="none" id="Plataforma-&gt;RegistoAnuncios" style="stroke: #A80036; stroke-width: 1.0;"/><polygon fill="#A80036" points="909.9596,357.6232,901.7436,352.1921,905.0282,356.7976,900.4227,360.0823,909.9596,357.6232" style="stroke: #A80036; stroke-width: 1.0;"/><text fill="#000000" font-family="sans-serif" font-size="13" lengthAdjust="spacingAndGlyphs" textLength="41" x="838" y="342.0669">possui</text><text fill="#000000" font-family="sans-serif" font-size="13" lengthAdjust="spacingAndGlyphs" textLength="8" x="815.0114" y="354.4542">1</text><text fill="#000000" font-family="sans-serif" font-size="13" lengthAdjust="spacingAndGlyphs" textLength="8" x="893.8444" y="368.74">1</text><!--MD5=[957336f8f7652c1733534e96e2968a5f]
link Plataforma to RegistoFreelancer--><path d="M807.3034,312.5065 C856.9696,302.1502 922.8107,288.4213 976.5847,277.2085 " fill="none" id="Plataforma-&gt;RegistoFreelancer" style="stroke: #A80036; stroke-width: 1.0;"/><polygon fill="#A80036" points="981.7501,276.1314,972.1231,274.0529,976.8554,277.1521,973.7562,281.8844,981.7501,276.1314" style="stroke: #A80036; stroke-width: 1.0;"/><text fill="#000000" font-family="sans-serif" font-size="13" lengthAdjust="spacingAndGlyphs" textLength="41" x="838" y="294.0669">possui</text><text fill="#000000" font-family="sans-serif" font-size="13" lengthAdjust="spacingAndGlyphs" textLength="8" x="815.0114" y="323.7727">1</text><text fill="#000000" font-family="sans-serif" font-size="13" lengthAdjust="spacingAndGlyphs" textLength="8" x="966.12" y="290.3336">1</text><!--MD5=[2903b91671052adea6f5e59eb6d59b42]
link RegistoAnuncios to Anuncio--><path d="M1237.0565,385 C1272.0847,385 1307.8079,385 1338.6819,385 " fill="none" id="RegistoAnuncios-&gt;Anuncio" style="stroke: #A80036; stroke-width: 1.0;"/><polygon fill="#A80036" points="1343.9904,385,1334.9904,381,1338.9904,385,1334.9904,389,1343.9904,385" style="stroke: #A80036; stroke-width: 1.0;"/><text fill="#000000" font-family="sans-serif" font-size="13" lengthAdjust="spacingAndGlyphs" textLength="45" x="1268" y="381.0669">agrega</text><text fill="#000000" font-family="sans-serif" font-size="13" lengthAdjust="spacingAndGlyphs" textLength="8" x="1245.1725" y="397.4429">1</text><text fill="#000000" font-family="sans-serif" font-size="13" lengthAdjust="spacingAndGlyphs" textLength="7" x="1329.0153" y="397.7443">*</text><!--MD5=[936379bbb1fbe67f1148bc2fdcd3e3c1]
link Anuncio to ListaCandidaturas--><path d="M1510.0697,381.8919 C1540.3716,380.7582 1575.1746,379.4561 1607.6599,378.2406 " fill="none" id="Anuncio-&gt;ListaCandidaturas" style="stroke: #A80036; stroke-width: 1.0;"/><polygon fill="#A80036" points="1612.8527,378.0463,1603.7093,374.386,1607.8562,378.2334,1604.0087,382.3804,1612.8527,378.0463" style="stroke: #A80036; stroke-width: 1.0;"/><text fill="#000000" font-family="sans-serif" font-size="13" lengthAdjust="spacingAndGlyphs" textLength="41" x="1541" y="375.0669">possui</text><text fill="#000000" font-family="sans-serif" font-size="13" lengthAdjust="spacingAndGlyphs" textLength="8" x="1518.0964" y="394.3496">1</text><text fill="#000000" font-family="sans-serif" font-size="13" lengthAdjust="spacingAndGlyphs" textLength="8" x="1596.9673" y="390.9152">1</text><!--MD5=[b3c62d3bd372a34b7ee6d6af17619677]
link ListaCandidaturas to Candidatura--><path d="M1829.0239,371.3835 C1862.6696,370.5686 1899.1383,369.6852 1930.4632,368.9265 " fill="none" id="ListaCandidaturas-&gt;Candidatura" style="stroke: #A80036; stroke-width: 1.0;"/><polygon fill="#A80036" points="1935.8466,368.7961,1926.7522,365.0156,1930.8481,368.9174,1926.9463,373.0132,1935.8466,368.7961" style="stroke: #A80036; stroke-width: 1.0;"/><text fill="#000000" font-family="sans-serif" font-size="13" lengthAdjust="spacingAndGlyphs" textLength="45" x="1860" y="365.0669">agrega</text><text fill="#000000" font-family="sans-serif" font-size="13" lengthAdjust="spacingAndGlyphs" textLength="8" x="1836.9006" y="383.7839">1</text><text fill="#000000" font-family="sans-serif" font-size="13" lengthAdjust="spacingAndGlyphs" textLength="7" x="1920.8386" y="381.8273">*</text><!--MD5=[a66e767a4304f5fa76db98d7839a7a61]
link Candidatura to Freelancer--><path d="M2084.2467,352.3598 C2132.6712,342.8113 2194.8262,330.5554 2238.8716,321.8704 " fill="none" id="Candidatura-&gt;Freelancer" style="stroke: #A80036; stroke-width: 1.0;"/><polygon fill="#A80036" points="2243.8815,320.8825,2234.2776,318.6994,2238.976,321.8499,2235.8255,326.5483,2243.8815,320.8825" style="stroke: #A80036; stroke-width: 1.0;"/><text fill="#000000" font-family="sans-serif" font-size="13" lengthAdjust="spacingAndGlyphs" textLength="85" x="2115" y="323.0669">removida por</text><polygon fill="#000000" points="2203,317.0664,2209,320.0664,2203,323.0664,2203,317.0664" style="stroke: #000000; stroke-width: 1.0;"/><text fill="#000000" font-family="sans-serif" font-size="13" lengthAdjust="spacingAndGlyphs" textLength="7" x="2091.8999" y="363.7292">*</text><text fill="#000000" font-family="sans-serif" font-size="13" lengthAdjust="spacingAndGlyphs" textLength="8" x="2227.9328" y="335.4961">1</text><!--MD5=[95795e0b4ecb0b567ae2ce3910745252]
link RegistoFreelancer to Freelancer--><path d="M1165.0545,257 C1236.4216,257 1338.0113,257 1427,257 C1427,257 1427,257 2010,257 C2090.6292,257 2181.9042,278.2658 2238.7108,294.107 " fill="none" id="RegistoFreelancer-&gt;Freelancer" style="stroke: #A80036; stroke-width: 1.0;"/><polygon fill="#A80036" points="2243.7588,295.5258,2236.1769,289.2397,2238.9453,294.1728,2234.0122,296.9412,2243.7588,295.5258" style="stroke: #A80036; stroke-width: 1.0;"/><text fill="#000000" font-family="sans-serif" font-size="13" lengthAdjust="spacingAndGlyphs" textLength="45" x="1698.5" y="253.0669">agrega</text><text fill="#000000" font-family="sans-serif" font-size="13" lengthAdjust="spacingAndGlyphs" textLength="8" x="1172.9676" y="269.7016">1</text><text fill="#000000" font-family="sans-serif" font-size="13" lengthAdjust="spacingAndGlyphs" textLength="7" x="2228.8656" y="306.4152">*</text><!--MD5=[680fd98347b611e87c3e41c3a869943e]
@startuml
skinparam classAttributeIconSize 0
left to right direction

class RetirarCandidaturaSubmetidaUI {
}

class RetirarCandidaturaSubmetidaController {
  +getAnunciosElegiveisParaRemocaoDoFreelancer()
  +getCandidatura()
  +eliminaCandidatura()
}
class AplicacaoPOT
{
  +static getInstance()
  +getSessaoAtual()
}

class SessaoUtilizador
{
  +getEmailUtilizador()
}
class Plataforma {
    -String designacao
    +getRegistoFreelancers
    +getRegistoAnuncios()
}

class RegistoFreelancer
{
 +getFreelancerByEmail(email)
}

class RegistoAnuncios
{
  +getAnunciosElegiveisParaRemocaoDoFreelancer(freel)
  +getAnuncioById(anuncioId)
}

class Freelancer {
    -String nome
    -String NIF
    -String telefone
    -String email
}

class Anuncio
{
    -Date dtInicioPublicitacao
    -Date dtFimPublicitacao
    -Date dtInicioCandidatura
    -Date dtFimCandidatura
    -Date dtInicioSeriacao
    -Date dtFimSeriacao
    +getListaCandidaturas()
    +eliminaCandidatura(cand)
}

class ListaCandidaturas
{
  +getCandidaturaByFreelancer(freel)
  +eliminaCandidatura(cand)
  -removeCandidatura(cand)
}

class Candidatura
{
    -Date dataCandidatura
    -Double valorPretendido
    -Integer nrDias
    -String txtApresentacao
    -String txtMotivacao
}

RetirarCandidaturaSubmetidaUI ..> RetirarCandidaturaSubmetidaController
RetirarCandidaturaSubmetidaController ..> Plataforma
RetirarCandidaturaSubmetidaController ..> RegistoFreelancer
RetirarCandidaturaSubmetidaController ..> RegistoAnuncios
RetirarCandidaturaSubmetidaController ..> AplicacaoPOT
RetirarCandidaturaSubmetidaController ..> SessaoUtilizador

Plataforma "1" - -> "1" RegistoAnuncios : possui
Plataforma "1" - -> "1" RegistoFreelancer : possui

RegistoAnuncios "1" - -> "*" Anuncio : agrega
Anuncio "1" - -> "1" ListaCandidaturas : possui
ListaCandidaturas "1" - -> "*" Candidatura : agrega

Candidatura "*" - -> "1"  Freelancer: removida por >

RegistoFreelancer "1" - -> "*" Freelancer: agrega
@enduml

PlantUML version 1.2019.12(Sun Nov 03 10:24:54 UTC 2019)
(GPL source distribution)
Java Runtime: OpenJDK Runtime Environment
JVM: OpenJDK 64-Bit Server VM
Java Version: 1.8.0_232-heroku-b09
Operating System: Linux
Default Encoding: UTF-8
Language: en
Country: US
--></g></svg>