<?xml version="1.0" encoding="UTF-8" standalone="no"?><svg xmlns="http://www.w3.org/2000/svg" xmlns:xlink="http://www.w3.org/1999/xlink" contentScriptType="application/ecmascript" contentStyleType="text/css" height="368px" preserveAspectRatio="none" style="width:1591px;height:368px;" version="1.1" viewBox="0 0 1591 368" width="1591px" zoomAndPan="magnify"><defs><filter height="300%" id="f1l1zji3sji8b3" width="300%" x="-1" y="-1"><feGaussianBlur result="blurOut" stdDeviation="2.0"/><feColorMatrix in="blurOut" result="blurOut2" type="matrix" values="0 0 0 0 0 0 0 0 0 0 0 0 0 0 0 0 0 0 .4 0"/><feOffset dx="4.0" dy="4.0" in="blurOut2" result="blurOut3"/><feBlend in="SourceGraphic" in2="blurOut3" mode="normal"/></filter></defs><g><!--MD5=[ecaed46f78f8cfe1e9ce18477649be18]
class Plataforma--><rect fill="#FEFECE" filter="url(#f1l1zji3sji8b3)" height="52.8047" id="Plataforma" style="stroke: #A80036; stroke-width: 1.5;" width="119" x="6" y="165"/><ellipse cx="29.55" cy="181" fill="#ADD1B2" rx="11" ry="11" style="stroke: #A80036; stroke-width: 1.0;"/><path d="M32.5188,186.6406 Q31.9406,186.9375 31.3,187.0859 Q30.6594,187.2344 29.9563,187.2344 Q27.4563,187.2344 26.1359,185.5859 Q24.8156,183.9375 24.8156,180.8125 Q24.8156,177.6875 26.1359,176.0313 Q27.4563,174.375 29.9563,174.375 Q30.6594,174.375 31.3078,174.5313 Q31.9563,174.6875 32.5188,174.9844 L32.5188,177.7031 Q31.8938,177.125 31.3,176.8516 Q30.7063,176.5781 30.0813,176.5781 Q28.7375,176.5781 28.05,177.6484 Q27.3625,178.7188 27.3625,180.8125 Q27.3625,182.9063 28.05,183.9766 Q28.7375,185.0469 30.0813,185.0469 Q30.7063,185.0469 31.3,184.7734 Q31.8938,184.5 32.5188,183.9219 L32.5188,186.6406 Z "/><text fill="#000000" font-family="sans-serif" font-size="12" lengthAdjust="spacingAndGlyphs" textLength="68" x="45.45" y="185.1543">Plataforma</text><line style="stroke: #A80036; stroke-width: 1.5;" x1="7" x2="124" y1="197" y2="197"/><text fill="#000000" font-family="sans-serif" font-size="11" lengthAdjust="spacingAndGlyphs" textLength="107" x="12" y="211.2104">-String designacao</text><!--MD5=[27c2d4bbe9f7b9d3b0ea2797cc54308a]
class Tarefa--><rect fill="#FEFECE" filter="url(#f1l1zji3sji8b3)" height="116.8281" id="Tarefa" style="stroke: #A80036; stroke-width: 1.5;" width="125" x="527" y="89"/><ellipse cx="565.85" cy="105" fill="#ADD1B2" rx="11" ry="11" style="stroke: #A80036; stroke-width: 1.0;"/><path d="M568.8188,110.6406 Q568.2406,110.9375 567.6,111.0859 Q566.9594,111.2344 566.2563,111.2344 Q563.7563,111.2344 562.4359,109.5859 Q561.1156,107.9375 561.1156,104.8125 Q561.1156,101.6875 562.4359,100.0313 Q563.7563,98.375 566.2563,98.375 Q566.9594,98.375 567.6078,98.5313 Q568.2563,98.6875 568.8188,98.9844 L568.8188,101.7031 Q568.1938,101.125 567.6,100.8516 Q567.0063,100.5781 566.3813,100.5781 Q565.0375,100.5781 564.35,101.6484 Q563.6625,102.7188 563.6625,104.8125 Q563.6625,106.9063 564.35,107.9766 Q565.0375,109.0469 566.3813,109.0469 Q567.0063,109.0469 567.6,108.7734 Q568.1938,108.5 568.8188,107.9219 L568.8188,110.6406 Z "/><text fill="#000000" font-family="sans-serif" font-size="12" lengthAdjust="spacingAndGlyphs" textLength="40" x="585.15" y="109.1543">Tarefa</text><line style="stroke: #A80036; stroke-width: 1.5;" x1="528" x2="651" y1="121" y2="121"/><text fill="#000000" font-family="sans-serif" font-size="11" lengthAdjust="spacingAndGlyphs" textLength="100" x="533" y="135.2104">-String referencia</text><text fill="#000000" font-family="sans-serif" font-size="11" lengthAdjust="spacingAndGlyphs" textLength="107" x="533" y="148.0151">-String designaçao</text><text fill="#000000" font-family="sans-serif" font-size="11" lengthAdjust="spacingAndGlyphs" textLength="83" x="533" y="160.8198">-String descInf</text><text fill="#000000" font-family="sans-serif" font-size="11" lengthAdjust="spacingAndGlyphs" textLength="112" x="533" y="173.6245">-String descTecnica</text><text fill="#000000" font-family="sans-serif" font-size="11" lengthAdjust="spacingAndGlyphs" textLength="113" x="533" y="186.4292">-Integer DuraçaoEst</text><text fill="#000000" font-family="sans-serif" font-size="11" lengthAdjust="spacingAndGlyphs" textLength="96" x="533" y="199.2339">-Double custoEst</text><!--MD5=[ac8682ea5466d223e49472789fb200d2]
class Colaborador--><rect fill="#FEFECE" filter="url(#f1l1zji3sji8b3)" height="91.2188" id="Colaborador" style="stroke: #A80036; stroke-width: 1.5;" width="109" x="1129.5" y="154"/><ellipse cx="1144.5" cy="170" fill="#ADD1B2" rx="11" ry="11" style="stroke: #A80036; stroke-width: 1.0;"/><path d="M1147.4688,175.6406 Q1146.8906,175.9375 1146.25,176.0859 Q1145.6094,176.2344 1144.9063,176.2344 Q1142.4063,176.2344 1141.0859,174.5859 Q1139.7656,172.9375 1139.7656,169.8125 Q1139.7656,166.6875 1141.0859,165.0313 Q1142.4063,163.375 1144.9063,163.375 Q1145.6094,163.375 1146.2578,163.5313 Q1146.9063,163.6875 1147.4688,163.9844 L1147.4688,166.7031 Q1146.8438,166.125 1146.25,165.8516 Q1145.6563,165.5781 1145.0313,165.5781 Q1143.6875,165.5781 1143,166.6484 Q1142.3125,167.7188 1142.3125,169.8125 Q1142.3125,171.9063 1143,172.9766 Q1143.6875,174.0469 1145.0313,174.0469 Q1145.6563,174.0469 1146.25,173.7734 Q1146.8438,173.5 1147.4688,172.9219 L1147.4688,175.6406 Z "/><text fill="#000000" font-family="sans-serif" font-size="12" lengthAdjust="spacingAndGlyphs" textLength="77" x="1158.5" y="174.1543">Colaborador</text><line style="stroke: #A80036; stroke-width: 1.5;" x1="1130.5" x2="1237.5" y1="186" y2="186"/><text fill="#000000" font-family="sans-serif" font-size="11" lengthAdjust="spacingAndGlyphs" textLength="74" x="1135.5" y="200.2104">-String nome</text><text fill="#000000" font-family="sans-serif" font-size="11" lengthAdjust="spacingAndGlyphs" textLength="80" x="1135.5" y="213.0151">-String função</text><text fill="#000000" font-family="sans-serif" font-size="11" lengthAdjust="spacingAndGlyphs" textLength="88" x="1135.5" y="225.8198">-String telefone</text><text fill="#000000" font-family="sans-serif" font-size="11" lengthAdjust="spacingAndGlyphs" textLength="73" x="1135.5" y="238.6245">-String email</text><!--MD5=[6559d866213c6b3fd003379aeba85775]
class Organização--><rect fill="#FEFECE" filter="url(#f1l1zji3sji8b3)" height="104.0234" id="Organização" style="stroke: #A80036; stroke-width: 1.5;" width="109" x="290" y="139.5"/><ellipse cx="305" cy="155.5" fill="#ADD1B2" rx="11" ry="11" style="stroke: #A80036; stroke-width: 1.0;"/><path d="M307.9688,161.1406 Q307.3906,161.4375 306.75,161.5859 Q306.1094,161.7344 305.4063,161.7344 Q302.9063,161.7344 301.5859,160.0859 Q300.2656,158.4375 300.2656,155.3125 Q300.2656,152.1875 301.5859,150.5313 Q302.9063,148.875 305.4063,148.875 Q306.1094,148.875 306.7578,149.0313 Q307.4063,149.1875 307.9688,149.4844 L307.9688,152.2031 Q307.3438,151.625 306.75,151.3516 Q306.1563,151.0781 305.5313,151.0781 Q304.1875,151.0781 303.5,152.1484 Q302.8125,153.2188 302.8125,155.3125 Q302.8125,157.4063 303.5,158.4766 Q304.1875,159.5469 305.5313,159.5469 Q306.1563,159.5469 306.75,159.2734 Q307.3438,159 307.9688,158.4219 L307.9688,161.1406 Z "/><text fill="#000000" font-family="sans-serif" font-size="12" lengthAdjust="spacingAndGlyphs" textLength="77" x="319" y="159.6543">Organização</text><line style="stroke: #A80036; stroke-width: 1.5;" x1="291" x2="398" y1="171.5" y2="171.5"/><text fill="#000000" font-family="sans-serif" font-size="11" lengthAdjust="spacingAndGlyphs" textLength="74" x="296" y="185.7104">-String nome</text><text fill="#000000" font-family="sans-serif" font-size="11" lengthAdjust="spacingAndGlyphs" textLength="59" x="296" y="198.5151">-String NIF</text><text fill="#000000" font-family="sans-serif" font-size="11" lengthAdjust="spacingAndGlyphs" textLength="86" x="296" y="211.3198">-String website</text><text fill="#000000" font-family="sans-serif" font-size="11" lengthAdjust="spacingAndGlyphs" textLength="88" x="296" y="224.1245">-String telefone</text><text fill="#000000" font-family="sans-serif" font-size="11" lengthAdjust="spacingAndGlyphs" textLength="73" x="296" y="236.9292">-String email</text><!--MD5=[19db0db7353a4bf63eefc676e5ba9b80]
class Anuncio--><rect fill="#FEFECE" filter="url(#f1l1zji3sji8b3)" height="116.8281" id="Anuncio" style="stroke: #A80036; stroke-width: 1.5;" width="155" x="794" y="8"/><ellipse cx="842.25" cy="24" fill="#ADD1B2" rx="11" ry="11" style="stroke: #A80036; stroke-width: 1.0;"/><path d="M845.2188,29.6406 Q844.6406,29.9375 844,30.0859 Q843.3594,30.2344 842.6563,30.2344 Q840.1563,30.2344 838.8359,28.5859 Q837.5156,26.9375 837.5156,23.8125 Q837.5156,20.6875 838.8359,19.0313 Q840.1563,17.375 842.6563,17.375 Q843.3594,17.375 844.0078,17.5313 Q844.6563,17.6875 845.2188,17.9844 L845.2188,20.7031 Q844.5938,20.125 844,19.8516 Q843.4063,19.5781 842.7813,19.5781 Q841.4375,19.5781 840.75,20.6484 Q840.0625,21.7188 840.0625,23.8125 Q840.0625,25.9063 840.75,26.9766 Q841.4375,28.0469 842.7813,28.0469 Q843.4063,28.0469 844,27.7734 Q844.5938,27.5 845.2188,26.9219 L845.2188,29.6406 Z "/><text fill="#000000" font-family="sans-serif" font-size="12" lengthAdjust="spacingAndGlyphs" textLength="50" x="862.75" y="28.1543">Anuncio</text><line style="stroke: #A80036; stroke-width: 1.5;" x1="795" x2="948" y1="40" y2="40"/><text fill="#000000" font-family="sans-serif" font-size="11" lengthAdjust="spacingAndGlyphs" textLength="141" x="800" y="54.2104">-Date dtInicioPublicitacao</text><text fill="#000000" font-family="sans-serif" font-size="11" lengthAdjust="spacingAndGlyphs" textLength="132" x="800" y="67.0151">-Date dtFimPublicitacao</text><text fill="#000000" font-family="sans-serif" font-size="11" lengthAdjust="spacingAndGlyphs" textLength="143" x="800" y="79.8198">-Date dtInicioCandidatura</text><text fill="#000000" font-family="sans-serif" font-size="11" lengthAdjust="spacingAndGlyphs" textLength="134" x="800" y="92.6245">-Date dtFimCandidatura</text><text fill="#000000" font-family="sans-serif" font-size="11" lengthAdjust="spacingAndGlyphs" textLength="124" x="800" y="105.4292">-Date dtInicioSeriacao</text><text fill="#000000" font-family="sans-serif" font-size="11" lengthAdjust="spacingAndGlyphs" textLength="115" x="800" y="118.2339">-Date dtFimSeriacao</text><!--MD5=[475c5b924ed41035684e2831311827d2]
class Candidatura--><rect fill="#FEFECE" filter="url(#f1l1zji3sji8b3)" height="104.0234" id="Candidatura" style="stroke: #A80036; stroke-width: 1.5;" width="148" x="1110" y="14.5"/><ellipse cx="1142.55" cy="30.5" fill="#ADD1B2" rx="11" ry="11" style="stroke: #A80036; stroke-width: 1.0;"/><path d="M1145.5188,36.1406 Q1144.9406,36.4375 1144.3,36.5859 Q1143.6594,36.7344 1142.9563,36.7344 Q1140.4563,36.7344 1139.1359,35.0859 Q1137.8156,33.4375 1137.8156,30.3125 Q1137.8156,27.1875 1139.1359,25.5313 Q1140.4563,23.875 1142.9563,23.875 Q1143.6594,23.875 1144.3078,24.0313 Q1144.9563,24.1875 1145.5188,24.4844 L1145.5188,27.2031 Q1144.8938,26.625 1144.3,26.3516 Q1143.7063,26.0781 1143.0813,26.0781 Q1141.7375,26.0781 1141.05,27.1484 Q1140.3625,28.2188 1140.3625,30.3125 Q1140.3625,32.4063 1141.05,33.4766 Q1141.7375,34.5469 1143.0813,34.5469 Q1143.7063,34.5469 1144.3,34.2734 Q1144.8938,34 1145.5188,33.4219 L1145.5188,36.1406 Z "/><text fill="#000000" font-family="sans-serif" font-size="12" lengthAdjust="spacingAndGlyphs" textLength="77" x="1160.45" y="34.6543">Candidatura</text><line style="stroke: #A80036; stroke-width: 1.5;" x1="1111" x2="1257" y1="46.5" y2="46.5"/><text fill="#000000" font-family="sans-serif" font-size="11" lengthAdjust="spacingAndGlyphs" textLength="128" x="1116" y="60.7104">-Date dataCandidatura</text><text fill="#000000" font-family="sans-serif" font-size="11" lengthAdjust="spacingAndGlyphs" textLength="136" x="1116" y="73.5151">-Double valorPretendido</text><text fill="#000000" font-family="sans-serif" font-size="11" lengthAdjust="spacingAndGlyphs" textLength="85" x="1116" y="86.3198">-Integer nrDias</text><text fill="#000000" font-family="sans-serif" font-size="11" lengthAdjust="spacingAndGlyphs" textLength="134" x="1116" y="99.1245">-String txtApresentacao</text><text fill="#000000" font-family="sans-serif" font-size="11" lengthAdjust="spacingAndGlyphs" textLength="112" x="1116" y="111.9292">-String txtMotivacao</text><!--MD5=[1f687b5315377fe49fca59b457947463]
class Freelancer--><rect fill="#FEFECE" filter="url(#f1l1zji3sji8b3)" height="91.2188" id="Freelancer" style="stroke: #A80036; stroke-width: 1.5;" width="100" x="1480" y="266"/><ellipse cx="1495.45" cy="282" fill="#ADD1B2" rx="11" ry="11" style="stroke: #A80036; stroke-width: 1.0;"/><path d="M1498.4188,287.6406 Q1497.8406,287.9375 1497.2,288.0859 Q1496.5594,288.2344 1495.8563,288.2344 Q1493.3563,288.2344 1492.0359,286.5859 Q1490.7156,284.9375 1490.7156,281.8125 Q1490.7156,278.6875 1492.0359,277.0313 Q1493.3563,275.375 1495.8563,275.375 Q1496.5594,275.375 1497.2078,275.5313 Q1497.8563,275.6875 1498.4188,275.9844 L1498.4188,278.7031 Q1497.7938,278.125 1497.2,277.8516 Q1496.6063,277.5781 1495.9813,277.5781 Q1494.6375,277.5781 1493.95,278.6484 Q1493.2625,279.7188 1493.2625,281.8125 Q1493.2625,283.9063 1493.95,284.9766 Q1494.6375,286.0469 1495.9813,286.0469 Q1496.6063,286.0469 1497.2,285.7734 Q1497.7938,285.5 1498.4188,284.9219 L1498.4188,287.6406 Z "/><text fill="#000000" font-family="sans-serif" font-size="12" lengthAdjust="spacingAndGlyphs" textLength="67" x="1509.55" y="286.1543">Freelancer</text><line style="stroke: #A80036; stroke-width: 1.5;" x1="1481" x2="1579" y1="298" y2="298"/><text fill="#000000" font-family="sans-serif" font-size="11" lengthAdjust="spacingAndGlyphs" textLength="74" x="1486" y="312.2104">-String nome</text><text fill="#000000" font-family="sans-serif" font-size="11" lengthAdjust="spacingAndGlyphs" textLength="59" x="1486" y="325.0151">-String NIF</text><text fill="#000000" font-family="sans-serif" font-size="11" lengthAdjust="spacingAndGlyphs" textLength="88" x="1486" y="337.8198">-String telefone</text><text fill="#000000" font-family="sans-serif" font-size="11" lengthAdjust="spacingAndGlyphs" textLength="73" x="1486" y="350.6245">-String email</text><!--MD5=[bfccd8e890448f4cee1f17ba82daa446]
link Plataforma to Organização--><path d="M125.0103,191.5 C173.8218,191.5 242.3675,191.5 289.8147,191.5 " fill="none" id="Plataforma-Organização" style="stroke: #A80036; stroke-width: 1.0;"/><text fill="#000000" font-family="sans-serif" font-size="13" lengthAdjust="spacingAndGlyphs" textLength="90" x="156" y="187.5669">tem registada</text><polygon fill="#000000" points="249,181.5664,255,184.5664,249,187.5664,249,181.5664" style="stroke: #000000; stroke-width: 1.0;"/><text fill="#000000" font-family="sans-serif" font-size="13" lengthAdjust="spacingAndGlyphs" textLength="8" x="133.1476" y="204.5489">1</text><text fill="#000000" font-family="sans-serif" font-size="13" lengthAdjust="spacingAndGlyphs" textLength="7" x="274.9961" y="204.5821">*</text><!--MD5=[3d9e8e0d764359bffb897b36dc4b633a]
link Plataforma to Anuncio--><path d="M125.1293,171.6362 C170.1401,157.0178 233.5782,137.2121 290,122.5 C460.7486,77.9771 505.6738,66.3153 682,59.5 C718.4173,58.0924 727.5748,58.3153 764,59.5 C773.6268,59.8131 783.7309,60.2835 793.7306,60.8353 " fill="none" id="Plataforma-Anuncio" style="stroke: #A80036; stroke-width: 1.0;"/><text fill="#000000" font-family="sans-serif" font-size="13" lengthAdjust="spacingAndGlyphs" textLength="53" x="430" y="70.5669">publicita</text><polygon fill="#000000" points="486,64.5664,492,67.5664,486,70.5664,486,64.5664" style="stroke: #000000; stroke-width: 1.0;"/><text fill="#000000" font-family="sans-serif" font-size="13" lengthAdjust="spacingAndGlyphs" textLength="8" x="132.8841" y="182.2163">1</text><text fill="#000000" font-family="sans-serif" font-size="13" lengthAdjust="spacingAndGlyphs" textLength="7" x="778.9846" y="73.0916">*</text><!--MD5=[39c0de7668d8063a4eb96c23050b3de2]
link Plataforma to Freelancer--><path d="M93.0001,218.1382 C140.2758,260.9959 241.8142,340.5 344.5,340.5 C344.5,340.5 344.5,340.5 1184,340.5 C1289.6408,340.5 1412.7927,326.9095 1479.9734,318.3359 " fill="none" id="Plataforma-Freelancer" style="stroke: #A80036; stroke-width: 1.0;"/><text fill="#000000" font-family="sans-serif" font-size="13" lengthAdjust="spacingAndGlyphs" textLength="53" x="690" y="336.5669">tem/usa</text><polygon fill="#000000" points="746,330.5664,752,333.5664,746,336.5664,746,330.5664" style="stroke: #000000; stroke-width: 1.0;"/><text fill="#000000" font-family="sans-serif" font-size="13" lengthAdjust="spacingAndGlyphs" textLength="8" x="90.1407" y="237.7087">1</text><text fill="#000000" font-family="sans-serif" font-size="13" lengthAdjust="spacingAndGlyphs" textLength="7" x="1465.1117" y="332.5021">*</text><!--MD5=[08db6e261ed14257d80751f737616a9d]
link Organização to Tarefa--><path d="M399.1778,181.6803 C436.9737,174.8925 487.3478,165.8457 526.7767,158.7646 " fill="none" id="Organização-Tarefa" style="stroke: #A80036; stroke-width: 1.0;"/><text fill="#000000" font-family="sans-serif" font-size="13" lengthAdjust="spacingAndGlyphs" textLength="41" x="436" y="159.5669">possui</text><polygon fill="#000000" points="480,153.5664,486,156.5664,480,159.5664,480,153.5664" style="stroke: #000000; stroke-width: 1.0;"/><text fill="#000000" font-family="sans-serif" font-size="13" lengthAdjust="spacingAndGlyphs" textLength="8" x="407.0626" y="193.4428">1</text><text fill="#000000" font-family="sans-serif" font-size="13" lengthAdjust="spacingAndGlyphs" textLength="7" x="512.1196" y="173.0188">*</text><!--MD5=[a1920769314186b331e19badf2cc4935]
link Organização to Colaborador--><path d="M399.277,203.666 C435.3517,211.0428 483.7375,219.7358 527,223.5 C749.8696,242.8913 1016.5915,218.5213 1129.3747,206.0327 " fill="none" id="Organização-Colaborador" style="stroke: #A80036; stroke-width: 1.0;"/><text fill="#000000" font-family="sans-serif" font-size="13" lengthAdjust="spacingAndGlyphs" textLength="26" x="703.5" y="225.5669">tem</text><polygon fill="#000000" points="732.5,219.5664,738.5,222.5664,732.5,225.5664,732.5,219.5664" style="stroke: #000000; stroke-width: 1.0;"/><text fill="#000000" font-family="sans-serif" font-size="13" lengthAdjust="spacingAndGlyphs" textLength="8" x="407.1752" y="218.3829">1</text><text fill="#000000" font-family="sans-serif" font-size="13" lengthAdjust="spacingAndGlyphs" textLength="23" x="1098.3157" y="219.8046">1..*</text><!--MD5=[ebe0b2adceebb6ee2636cb1948c7c8a9]
link Tarefa to Colaborador--><path d="M652.2784,152.9911 C769.2805,163.2251 1018.8086,185.051 1129.3477,194.7197 " fill="none" id="Tarefa-Colaborador" style="stroke: #A80036; stroke-width: 1.0;"/><text fill="#000000" font-family="sans-serif" font-size="13" lengthAdjust="spacingAndGlyphs" textLength="104" x="819.5" y="161.5669">especificada por</text><text fill="#000000" font-family="sans-serif" font-size="13" lengthAdjust="spacingAndGlyphs" textLength="7" x="659.9418" y="166.5777">*</text><text fill="#000000" font-family="sans-serif" font-size="13" lengthAdjust="spacingAndGlyphs" textLength="8" x="1113.4663" y="207.1463">1</text><!--MD5=[35fae5763b5ac085aad1a803f88e2b95]
link Tarefa to Anuncio--><path d="M652.1981,116.7779 C662.0313,112.6193 672.1888,108.6926 682,105.5 C718.0926,93.7554 759.2443,84.7803 793.9565,78.4182 " fill="none" id="Tarefa-Anuncio" style="stroke: #A80036; stroke-width: 1.0;"/><text fill="#000000" font-family="sans-serif" font-size="13" lengthAdjust="spacingAndGlyphs" textLength="67" x="683" y="80.5669">Da origem</text><polygon fill="#000000" points="753,74.5664,759,77.5664,753,80.5664,753,74.5664" style="stroke: #000000; stroke-width: 1.0;"/><text fill="#000000" font-family="sans-serif" font-size="13" lengthAdjust="spacingAndGlyphs" textLength="8" x="659.9101" y="126.1774">1</text><text fill="#000000" font-family="sans-serif" font-size="13" lengthAdjust="spacingAndGlyphs" textLength="24" x="761.9815" y="92.2281">0..1</text><!--MD5=[439a6ad1de0b5aa57a973cae1bf36ce5]
link Anuncio to Tarefa--><path d="M793.8412,118.0059 C784.0844,122.8788 774.0093,127.2157 764,130.5 C728.1374,142.2673 686.0757,146.6236 652.2342,147.9874 " fill="none" id="Anuncio-Tarefa" style="stroke: #A80036; stroke-width: 1.0;"/><polygon fill="#000000" points="697,120.5664,691,123.5664,697,126.5664,697,120.5664" style="stroke: #000000; stroke-width: 1.0;"/><text fill="#000000" font-family="sans-serif" font-size="13" lengthAdjust="spacingAndGlyphs" textLength="53" x="703" y="126.5669">publicita</text><text fill="#000000" font-family="sans-serif" font-size="13" lengthAdjust="spacingAndGlyphs" textLength="8" x="778.0581" y="135.7113">1</text><text fill="#000000" font-family="sans-serif" font-size="13" lengthAdjust="spacingAndGlyphs" textLength="24" x="659.9412" y="144.3468">0..1</text><!--MD5=[a66e767a4304f5fa76db98d7839a7a61]
link Candidatura to Freelancer--><path d="M1257.8013,118.7581 C1324.6855,166.1184 1421.448,234.6351 1479.7804,275.9399 " fill="none" id="Candidatura-Freelancer" style="stroke: #A80036; stroke-width: 1.0;"/><text fill="#000000" font-family="sans-serif" font-size="13" lengthAdjust="spacingAndGlyphs" textLength="147" x="1289" y="141.5669">realizada/removida por</text><polygon fill="#000000" points="1439,135.5664,1445,138.5664,1439,141.5664,1439,135.5664" style="stroke: #000000; stroke-width: 1.0;"/><text fill="#000000" font-family="sans-serif" font-size="13" lengthAdjust="spacingAndGlyphs" textLength="7" x="1259.8087" y="138.4885">*</text><text fill="#000000" font-family="sans-serif" font-size="13" lengthAdjust="spacingAndGlyphs" textLength="8" x="1464.1558" y="284.0548">1</text><!--MD5=[0a535575571876f6213287bf563a867d]
link Anuncio to Colaborador--><path d="M949.1487,99.5473 C1005.1854,123.3965 1079.4598,155.0077 1129.3446,176.2387 " fill="none" id="Anuncio-Colaborador" style="stroke: #A80036; stroke-width: 1.0;"/><text fill="#000000" font-family="sans-serif" font-size="13" lengthAdjust="spacingAndGlyphs" textLength="86" x="980" y="108.5669">publicado por</text><polygon fill="#000000" points="1069,102.5664,1075,105.5664,1069,108.5664,1069,102.5664" style="stroke: #000000; stroke-width: 1.0;"/><text fill="#000000" font-family="sans-serif" font-size="13" lengthAdjust="spacingAndGlyphs" textLength="7" x="956.8832" y="115.4934">*</text><text fill="#000000" font-family="sans-serif" font-size="13" lengthAdjust="spacingAndGlyphs" textLength="8" x="1113.4628" y="186.1819">1</text><!--MD5=[27b52c98fcb5387c047ce09b42fcb62d]
link Anuncio to Candidatura--><path d="M949.1487,66.5 C998.3164,66.5 1061.5247,66.5 1109.979,66.5 " fill="none" id="Anuncio-Candidatura" style="stroke: #A80036; stroke-width: 1.0;"/><text fill="#000000" font-family="sans-serif" font-size="13" lengthAdjust="spacingAndGlyphs" textLength="44" x="1001" y="62.5669">recebe</text><polygon fill="#000000" points="1048,56.5664,1054,59.5664,1048,62.5664,1048,56.5664" style="stroke: #000000; stroke-width: 1.0;"/><text fill="#000000" font-family="sans-serif" font-size="13" lengthAdjust="spacingAndGlyphs" textLength="8" x="956.9308" y="79.2963">1</text><text fill="#000000" font-family="sans-serif" font-size="13" lengthAdjust="spacingAndGlyphs" textLength="7" x="1094.9846" y="79.346">*</text><!--MD5=[34c341fc09a73c2ced027d963b16503f]
@startuml
skinparam classAttributeIconSize 0
hide methods
left to right direction

class Plataforma {
  -String designacao
}

class Tarefa {
  -String referencia
  -String designaçao
  -String descInf
  -String descTecnica
  -Integer DuraçaoEst
  -Double custoEst

  }

class Colaborador {
    -String nome
    -String função
    -String telefone
    -String email
}


class Organização {
  -String nome
  -String NIF
  -String website
  -String telefone
  -String email
  
  }

class Anuncio
{
    -Date dtInicioPublicitacao
    -Date dtFimPublicitacao
    -Date dtInicioCandidatura
    -Date dtFimCandidatura
    -Date dtInicioSeriacao
    -Date dtFimSeriacao
}

class Candidatura
{
    -Date dataCandidatura
    -Double valorPretendido
    -Integer nrDias
    -String txtApresentacao
    -String txtMotivacao
}

class Freelancer{
  
  -String nome
  -String NIF
  -String telefone
  -String email
}

Plataforma "1" - - "*" Organização : tem registada >
Plataforma "1" - - "*" Anuncio: publicita >
Plataforma "1" - - "*" Freelancer: tem/usa >

Organização "1" - - "*" Tarefa: possui >
Organização "1" - - "1..*" Colaborador: tem >

Tarefa "*" - - "1" Colaborador: especificada por 
Tarefa "1" - - "0..1" Anuncio: Da origem >

Candidatura "*" - - "1" Freelancer : realizada/removida por >


Anuncio "1" - - "0..1" Tarefa: publicita >
Anuncio "*" - - "1" Colaborador: publicado por >
Anuncio "1" - - "*" Candidatura: recebe >
@enduml

PlantUML version 1.2019.12(Sun Nov 03 10:24:54 UTC 2019)
(GPL source distribution)
Java Runtime: OpenJDK Runtime Environment
JVM: OpenJDK 64-Bit Server VM
Java Version: 1.8.0_232-heroku-b09
Operating System: Linux
Default Encoding: UTF-8
Language: en
Country: US
--></g></svg>