<?xml version="1.0" encoding="UTF-8" standalone="no"?><svg xmlns="http://www.w3.org/2000/svg" xmlns:xlink="http://www.w3.org/1999/xlink" contentScriptType="application/ecmascript" contentStyleType="text/css" height="413px" preserveAspectRatio="none" style="width:2119px;height:413px;" version="1.1" viewBox="0 0 2119 413" width="2119px" zoomAndPan="magnify"><defs><filter height="300%" id="fk877l6t7n55a" width="300%" x="-1" y="-1"><feGaussianBlur result="blurOut" stdDeviation="2.0"/><feColorMatrix in="blurOut" result="blurOut2" type="matrix" values="0 0 0 0 0 0 0 0 0 0 0 0 0 0 0 0 0 0 .4 0"/><feOffset dx="4.0" dy="4.0" in="blurOut2" result="blurOut3"/><feBlend in="SourceGraphic" in2="blurOut3" mode="normal"/></filter></defs><g><!--MD5=[ecaed46f78f8cfe1e9ce18477649be18]
class Plataforma--><rect fill="#FEFECE" filter="url(#fk877l6t7n55a)" height="52.8047" id="Plataforma" style="stroke: #A80036; stroke-width: 1.5;" width="119" x="6" y="276.6435"/><ellipse cx="29.55" cy="292.6435" fill="#ADD1B2" rx="11" ry="11" style="stroke: #A80036; stroke-width: 1.0;"/><path d="M32.5188,298.2841 Q31.9406,298.581 31.3,298.7294 Q30.6594,298.8779 29.9563,298.8779 Q27.4563,298.8779 26.1359,297.2294 Q24.8156,295.581 24.8156,292.456 Q24.8156,289.331 26.1359,287.6748 Q27.4563,286.0185 29.9563,286.0185 Q30.6594,286.0185 31.3078,286.1748 Q31.9563,286.331 32.5188,286.6279 L32.5188,289.3466 Q31.8938,288.7685 31.3,288.4951 Q30.7063,288.2216 30.0813,288.2216 Q28.7375,288.2216 28.05,289.2919 Q27.3625,290.3623 27.3625,292.456 Q27.3625,294.5498 28.05,295.6201 Q28.7375,296.6904 30.0813,296.6904 Q30.7063,296.6904 31.3,296.4169 Q31.8938,296.1435 32.5188,295.5654 L32.5188,298.2841 Z "/><text fill="#000000" font-family="sans-serif" font-size="12" lengthAdjust="spacingAndGlyphs" textLength="68" x="45.45" y="296.7978">Plataforma</text><line style="stroke: #A80036; stroke-width: 1.5;" x1="7" x2="124" y1="308.6435" y2="308.6435"/><text fill="#000000" font-family="sans-serif" font-size="11" lengthAdjust="spacingAndGlyphs" textLength="107" x="12" y="322.8539">-String designacao</text><!--MD5=[8bc17582e55ad67b52a8caaa08816a5d]
class ProcessoAtribuicao--><rect fill="#FEFECE" filter="url(#fk877l6t7n55a)" height="142.4375" id="ProcessoAtribuicao" style="stroke: #A80036; stroke-width: 1.5;" width="155" x="954.5" y="112.1435"/><ellipse cx="970.4" cy="128.1435" fill="#ADD1B2" rx="11" ry="11" style="stroke: #A80036; stroke-width: 1.0;"/><path d="M973.3688,133.7841 Q972.7906,134.081 972.15,134.2294 Q971.5094,134.3779 970.8063,134.3779 Q968.3063,134.3779 966.9859,132.7294 Q965.6656,131.081 965.6656,127.956 Q965.6656,124.831 966.9859,123.1748 Q968.3063,121.5185 970.8063,121.5185 Q971.5094,121.5185 972.1578,121.6748 Q972.8063,121.831 973.3688,122.1279 L973.3688,124.8466 Q972.7438,124.2685 972.15,123.9951 Q971.5563,123.7216 970.9313,123.7216 Q969.5875,123.7216 968.9,124.7919 Q968.2125,125.8623 968.2125,127.956 Q968.2125,130.0498 968.9,131.1201 Q969.5875,132.1904 970.9313,132.1904 Q971.5563,132.1904 972.15,131.9169 Q972.7438,131.6435 973.3688,131.0654 L973.3688,133.7841 Z "/><text fill="#000000" font-family="sans-serif" font-size="12" lengthAdjust="spacingAndGlyphs" textLength="121" x="984.6" y="132.2978">ProcessoAtribuicao</text><line style="stroke: #A80036; stroke-width: 1.5;" x1="955.5" x2="1108.5" y1="144.1435" y2="144.1435"/><text fill="#000000" font-family="sans-serif" font-size="11" lengthAdjust="spacingAndGlyphs" textLength="143" x="960.5" y="158.3539">-String emailOrganizacao</text><text fill="#000000" font-family="sans-serif" font-size="11" lengthAdjust="spacingAndGlyphs" textLength="100" x="960.5" y="171.1586">-String freelancer</text><text fill="#000000" font-family="sans-serif" font-size="11" lengthAdjust="spacingAndGlyphs" textLength="106" x="960.5" y="183.9633">-String descTarefa</text><text fill="#000000" font-family="sans-serif" font-size="11" lengthAdjust="spacingAndGlyphs" textLength="130" x="960.5" y="196.768">-Integer periodoTempo</text><text fill="#000000" font-family="sans-serif" font-size="11" lengthAdjust="spacingAndGlyphs" textLength="76" x="960.5" y="209.5727">-Integer valor</text><text fill="#000000" font-family="sans-serif" font-size="11" lengthAdjust="spacingAndGlyphs" textLength="130" x="960.5" y="222.3774">-String anuncioOriginal</text><text fill="#000000" font-family="sans-serif" font-size="11" lengthAdjust="spacingAndGlyphs" textLength="95" x="960.5" y="235.1821">-Integer numSeq</text><text fill="#000000" font-family="sans-serif" font-size="11" lengthAdjust="spacingAndGlyphs" textLength="141" x="960.5" y="247.9868">-Date dtInicioAdjudicacao</text><!--MD5=[d0e9f237fb3c72e1245c36c562ad52c4]
class TipoRegimento--><rect fill="#FEFECE" filter="url(#fk877l6t7n55a)" height="65.6094" id="TipoRegimento" style="stroke: #A80036; stroke-width: 1.5;" width="149" x="1407" y="9.1435"/><ellipse cx="1432.8" cy="25.1435" fill="#ADD1B2" rx="11" ry="11" style="stroke: #A80036; stroke-width: 1.0;"/><path d="M1435.7688,30.7841 Q1435.1906,31.081 1434.55,31.2294 Q1433.9094,31.3779 1433.2063,31.3779 Q1430.7063,31.3779 1429.3859,29.7294 Q1428.0656,28.081 1428.0656,24.956 Q1428.0656,21.831 1429.3859,20.1748 Q1430.7063,18.5185 1433.2063,18.5185 Q1433.9094,18.5185 1434.5578,18.6748 Q1435.2063,18.831 1435.7688,19.1279 L1435.7688,21.8466 Q1435.1438,21.2685 1434.55,20.9951 Q1433.9563,20.7216 1433.3313,20.7216 Q1431.9875,20.7216 1431.3,21.7919 Q1430.6125,22.8623 1430.6125,24.956 Q1430.6125,27.0498 1431.3,28.1201 Q1431.9875,29.1904 1433.3313,29.1904 Q1433.9563,29.1904 1434.55,28.9169 Q1435.1438,28.6435 1435.7688,28.0654 L1435.7688,30.7841 Z "/><text fill="#000000" font-family="sans-serif" font-size="12" lengthAdjust="spacingAndGlyphs" textLength="93" x="1449.2" y="29.2978">TipoRegimento</text><line style="stroke: #A80036; stroke-width: 1.5;" x1="1408" x2="1555" y1="41.1435" y2="41.1435"/><text fill="#000000" font-family="sans-serif" font-size="11" lengthAdjust="spacingAndGlyphs" textLength="107" x="1413" y="55.3539">-String designacao</text><text fill="#000000" font-family="sans-serif" font-size="11" lengthAdjust="spacingAndGlyphs" textLength="137" x="1413" y="68.1586">-String descricaoRegras</text><!--MD5=[5d1ab724c50d81e7fd2e67537350aa20]
class Adjudicacao--><rect fill="#FEFECE" filter="url(#fk877l6t7n55a)" height="52.8047" id="Adjudicacao" style="stroke: #A80036; stroke-width: 1.5;" width="130" x="1416.5" y="265.6435"/><ellipse cx="1441.4" cy="281.6435" fill="#ADD1B2" rx="11" ry="11" style="stroke: #A80036; stroke-width: 1.0;"/><path d="M1444.3688,287.2841 Q1443.7906,287.581 1443.15,287.7294 Q1442.5094,287.8779 1441.8063,287.8779 Q1439.3063,287.8779 1437.9859,286.2294 Q1436.6656,284.581 1436.6656,281.456 Q1436.6656,278.331 1437.9859,276.6748 Q1439.3063,275.0185 1441.8063,275.0185 Q1442.5094,275.0185 1443.1578,275.1748 Q1443.8063,275.331 1444.3688,275.6279 L1444.3688,278.3466 Q1443.7438,277.7685 1443.15,277.4951 Q1442.5563,277.2216 1441.9313,277.2216 Q1440.5875,277.2216 1439.9,278.2919 Q1439.2125,279.3623 1439.2125,281.456 Q1439.2125,283.5498 1439.9,284.6201 Q1440.5875,285.6904 1441.9313,285.6904 Q1442.5563,285.6904 1443.15,285.4169 Q1443.7438,285.1435 1444.3688,284.5654 L1444.3688,287.2841 Z "/><text fill="#000000" font-family="sans-serif" font-size="12" lengthAdjust="spacingAndGlyphs" textLength="76" x="1457.6" y="285.7978">Adjudicacao</text><line style="stroke: #A80036; stroke-width: 1.5;" x1="1417.5" x2="1545.5" y1="297.6435" y2="297.6435"/><text fill="#000000" font-family="sans-serif" font-size="11" lengthAdjust="spacingAndGlyphs" textLength="118" x="1422.5" y="311.8539">-Date dataRealizacao</text><!--MD5=[f76269727d196c83b4cd20a648bddfe7]
class AtribuicaoObrigatoria--><rect fill="#FEFECE" filter="url(#fk877l6t7n55a)" height="40" id="AtribuicaoObrigatoria" style="stroke: #A80036; stroke-width: 1.5;" width="165" x="438" y="356.1435"/><ellipse cx="453" cy="372.1435" fill="#ADD1B2" rx="11" ry="11" style="stroke: #A80036; stroke-width: 1.0;"/><path d="M455.9688,377.7841 Q455.3906,378.081 454.75,378.2294 Q454.1094,378.3779 453.4063,378.3779 Q450.9063,378.3779 449.5859,376.7294 Q448.2656,375.081 448.2656,371.956 Q448.2656,368.831 449.5859,367.1748 Q450.9063,365.5185 453.4063,365.5185 Q454.1094,365.5185 454.7578,365.6748 Q455.4063,365.831 455.9688,366.1279 L455.9688,368.8466 Q455.3438,368.2685 454.75,367.9951 Q454.1563,367.7216 453.5313,367.7216 Q452.1875,367.7216 451.5,368.7919 Q450.8125,369.8623 450.8125,371.956 Q450.8125,374.0498 451.5,375.1201 Q452.1875,376.1904 453.5313,376.1904 Q454.1563,376.1904 454.75,375.9169 Q455.3438,375.6435 455.9688,375.0654 L455.9688,377.7841 Z "/><text fill="#000000" font-family="sans-serif" font-size="12" lengthAdjust="spacingAndGlyphs" textLength="133" x="467" y="376.2978">AtribuicaoObrigatoria</text><line style="stroke: #A80036; stroke-width: 1.5;" x1="439" x2="602" y1="388.1435" y2="388.1435"/><!--MD5=[8d0e9144ae3813028418ded2f4779180]
class SeriacaoObjetiva--><rect fill="#FEFECE" filter="url(#fk877l6t7n55a)" height="40" id="SeriacaoObjetiva" style="stroke: #A80036; stroke-width: 1.5;" width="137" x="262" y="283.1435"/><ellipse cx="277" cy="299.1435" fill="#ADD1B2" rx="11" ry="11" style="stroke: #A80036; stroke-width: 1.0;"/><path d="M279.9688,304.7841 Q279.3906,305.081 278.75,305.2294 Q278.1094,305.3779 277.4063,305.3779 Q274.9063,305.3779 273.5859,303.7294 Q272.2656,302.081 272.2656,298.956 Q272.2656,295.831 273.5859,294.1748 Q274.9063,292.5185 277.4063,292.5185 Q278.1094,292.5185 278.7578,292.6748 Q279.4063,292.831 279.9688,293.1279 L279.9688,295.8466 Q279.3438,295.2685 278.75,294.9951 Q278.1563,294.7216 277.5313,294.7216 Q276.1875,294.7216 275.5,295.7919 Q274.8125,296.8623 274.8125,298.956 Q274.8125,301.0498 275.5,302.1201 Q276.1875,303.1904 277.5313,303.1904 Q278.1563,303.1904 278.75,302.9169 Q279.3438,302.6435 279.9688,302.0654 L279.9688,304.7841 Z "/><text fill="#000000" font-family="sans-serif" font-size="12" lengthAdjust="spacingAndGlyphs" textLength="105" x="291" y="303.2978">SeriacaoObjetiva</text><line style="stroke: #A80036; stroke-width: 1.5;" x1="263" x2="398" y1="315.1435" y2="315.1435"/><!--MD5=[19db0db7353a4bf63eefc676e5ba9b80]
class Anuncio--><rect fill="#FEFECE" filter="url(#fk877l6t7n55a)" height="116.8281" id="Anuncio" style="stroke: #A80036; stroke-width: 1.5;" width="155" x="253" y="124.6435"/><ellipse cx="301.25" cy="140.6435" fill="#ADD1B2" rx="11" ry="11" style="stroke: #A80036; stroke-width: 1.0;"/><path d="M304.2188,146.2841 Q303.6406,146.581 303,146.7294 Q302.3594,146.8779 301.6563,146.8779 Q299.1563,146.8779 297.8359,145.2294 Q296.5156,143.581 296.5156,140.456 Q296.5156,137.331 297.8359,135.6748 Q299.1563,134.0185 301.6563,134.0185 Q302.3594,134.0185 303.0078,134.1748 Q303.6563,134.331 304.2188,134.6279 L304.2188,137.3466 Q303.5938,136.7685 303,136.4951 Q302.4063,136.2216 301.7813,136.2216 Q300.4375,136.2216 299.75,137.2919 Q299.0625,138.3623 299.0625,140.456 Q299.0625,142.5498 299.75,143.6201 Q300.4375,144.6904 301.7813,144.6904 Q302.4063,144.6904 303,144.4169 Q303.5938,144.1435 304.2188,143.5654 L304.2188,146.2841 Z "/><text fill="#000000" font-family="sans-serif" font-size="12" lengthAdjust="spacingAndGlyphs" textLength="50" x="321.75" y="144.7978">Anuncio</text><line style="stroke: #A80036; stroke-width: 1.5;" x1="254" x2="407" y1="156.6435" y2="156.6435"/><text fill="#000000" font-family="sans-serif" font-size="11" lengthAdjust="spacingAndGlyphs" textLength="141" x="259" y="170.8539">-Date dtInicioPublicitacao</text><text fill="#000000" font-family="sans-serif" font-size="11" lengthAdjust="spacingAndGlyphs" textLength="132" x="259" y="183.6586">-Date dtFimPublicitacao</text><text fill="#000000" font-family="sans-serif" font-size="11" lengthAdjust="spacingAndGlyphs" textLength="143" x="259" y="196.4633">-Date dtInicioCandidatura</text><text fill="#000000" font-family="sans-serif" font-size="11" lengthAdjust="spacingAndGlyphs" textLength="134" x="259" y="209.268">-Date dtFimCandidatura</text><text fill="#000000" font-family="sans-serif" font-size="11" lengthAdjust="spacingAndGlyphs" textLength="124" x="259" y="222.0727">-Date dtInicioSeriacao</text><text fill="#000000" font-family="sans-serif" font-size="11" lengthAdjust="spacingAndGlyphs" textLength="115" x="259" y="234.8774">-Date dtFimSeriacao</text><!--MD5=[475c5b924ed41035684e2831311827d2]
class Candidatura--><rect fill="#FEFECE" filter="url(#fk877l6t7n55a)" height="104.0234" id="Candidatura" style="stroke: #A80036; stroke-width: 1.5;" width="148" x="1702" y="131.1435"/><ellipse cx="1734.55" cy="147.1435" fill="#ADD1B2" rx="11" ry="11" style="stroke: #A80036; stroke-width: 1.0;"/><path d="M1737.5188,152.7841 Q1736.9406,153.081 1736.3,153.2294 Q1735.6594,153.3779 1734.9563,153.3779 Q1732.4563,153.3779 1731.1359,151.7294 Q1729.8156,150.081 1729.8156,146.956 Q1729.8156,143.831 1731.1359,142.1748 Q1732.4563,140.5185 1734.9563,140.5185 Q1735.6594,140.5185 1736.3078,140.6748 Q1736.9563,140.831 1737.5188,141.1279 L1737.5188,143.8466 Q1736.8938,143.2685 1736.3,142.9951 Q1735.7063,142.7216 1735.0813,142.7216 Q1733.7375,142.7216 1733.05,143.7919 Q1732.3625,144.8623 1732.3625,146.956 Q1732.3625,149.0498 1733.05,150.1201 Q1733.7375,151.1904 1735.0813,151.1904 Q1735.7063,151.1904 1736.3,150.9169 Q1736.8938,150.6435 1737.5188,150.0654 L1737.5188,152.7841 Z "/><text fill="#000000" font-family="sans-serif" font-size="12" lengthAdjust="spacingAndGlyphs" textLength="77" x="1752.45" y="151.2978">Candidatura</text><line style="stroke: #A80036; stroke-width: 1.5;" x1="1703" x2="1849" y1="163.1435" y2="163.1435"/><text fill="#000000" font-family="sans-serif" font-size="11" lengthAdjust="spacingAndGlyphs" textLength="128" x="1708" y="177.3539">-Date dataCandidatura</text><text fill="#000000" font-family="sans-serif" font-size="11" lengthAdjust="spacingAndGlyphs" textLength="136" x="1708" y="190.1586">-Double valorPretendido</text><text fill="#000000" font-family="sans-serif" font-size="11" lengthAdjust="spacingAndGlyphs" textLength="85" x="1708" y="202.9633">-Integer nrDias</text><text fill="#000000" font-family="sans-serif" font-size="11" lengthAdjust="spacingAndGlyphs" textLength="134" x="1708" y="215.768">-String txtApresentacao</text><text fill="#000000" font-family="sans-serif" font-size="11" lengthAdjust="spacingAndGlyphs" textLength="112" x="1708" y="228.5727">-String txtMotivacao</text><!--MD5=[716bba0e94eea125d5a66a891f2c3c34]
class Classificacao--><rect fill="#FEFECE" filter="url(#fk877l6t7n55a)" height="65.6094" id="Classificacao" style="stroke: #A80036; stroke-width: 1.5;" width="118" x="1422.5" y="150.1435"/><ellipse cx="1439.75" cy="166.1435" fill="#ADD1B2" rx="11" ry="11" style="stroke: #A80036; stroke-width: 1.0;"/><path d="M1442.7188,171.7841 Q1442.1406,172.081 1441.5,172.2294 Q1440.8594,172.3779 1440.1563,172.3779 Q1437.6563,172.3779 1436.3359,170.7294 Q1435.0156,169.081 1435.0156,165.956 Q1435.0156,162.831 1436.3359,161.1748 Q1437.6563,159.5185 1440.1563,159.5185 Q1440.8594,159.5185 1441.5078,159.6748 Q1442.1563,159.831 1442.7188,160.1279 L1442.7188,162.8466 Q1442.0938,162.2685 1441.5,161.9951 Q1440.9063,161.7216 1440.2813,161.7216 Q1438.9375,161.7216 1438.25,162.7919 Q1437.5625,163.8623 1437.5625,165.956 Q1437.5625,168.0498 1438.25,169.1201 Q1438.9375,170.1904 1440.2813,170.1904 Q1440.9063,170.1904 1441.5,169.9169 Q1442.0938,169.6435 1442.7188,169.0654 L1442.7188,171.7841 Z "/><text fill="#000000" font-family="sans-serif" font-size="12" lengthAdjust="spacingAndGlyphs" textLength="81" x="1454.25" y="170.2978">Classificacao</text><line style="stroke: #A80036; stroke-width: 1.5;" x1="1423.5" x2="1539.5" y1="182.1435" y2="182.1435"/><text fill="#000000" font-family="sans-serif" font-size="11" lengthAdjust="spacingAndGlyphs" textLength="77" x="1428.5" y="196.3539">-Integer lugar</text><text fill="#000000" font-family="sans-serif" font-size="11" lengthAdjust="spacingAndGlyphs" textLength="106" x="1428.5" y="209.1586">-String justificacao</text><!--MD5=[aca0f236260d30190baee83e33cc7802]
class ProcessoSeriacao--><rect fill="#FEFECE" filter="url(#fk877l6t7n55a)" height="65.6094" id="ProcessoSeriacao" style="stroke: #A80036; stroke-width: 1.5;" width="145" x="633" y="150.1435"/><ellipse cx="648" cy="166.1435" fill="#ADD1B2" rx="11" ry="11" style="stroke: #A80036; stroke-width: 1.0;"/><path d="M650.9688,171.7841 Q650.3906,172.081 649.75,172.2294 Q649.1094,172.3779 648.4063,172.3779 Q645.9063,172.3779 644.5859,170.7294 Q643.2656,169.081 643.2656,165.956 Q643.2656,162.831 644.5859,161.1748 Q645.9063,159.5185 648.4063,159.5185 Q649.1094,159.5185 649.7578,159.6748 Q650.4063,159.831 650.9688,160.1279 L650.9688,162.8466 Q650.3438,162.2685 649.75,161.9951 Q649.1563,161.7216 648.5313,161.7216 Q647.1875,161.7216 646.5,162.7919 Q645.8125,163.8623 645.8125,165.956 Q645.8125,168.0498 646.5,169.1201 Q647.1875,170.1904 648.5313,170.1904 Q649.1563,170.1904 649.75,169.9169 Q650.3438,169.6435 650.9688,169.0654 L650.9688,171.7841 Z "/><text fill="#000000" font-family="sans-serif" font-size="12" lengthAdjust="spacingAndGlyphs" textLength="113" x="662" y="170.2978">ProcessoSeriacao</text><line style="stroke: #A80036; stroke-width: 1.5;" x1="634" x2="777" y1="182.1435" y2="182.1435"/><text fill="#000000" font-family="sans-serif" font-size="11" lengthAdjust="spacingAndGlyphs" textLength="118" x="639" y="196.3539">-Date dataRealizacao</text><text fill="#000000" font-family="sans-serif" font-size="11" lengthAdjust="spacingAndGlyphs" textLength="99" x="639" y="209.1586">-String conclusao</text><!--MD5=[1f687b5315377fe49fca59b457947463]
class Freelancer--><rect fill="#FEFECE" filter="url(#fk877l6t7n55a)" height="91.2188" id="Freelancer" style="stroke: #A80036; stroke-width: 1.5;" width="100" x="2008" y="137.6435"/><ellipse cx="2023.45" cy="153.6435" fill="#ADD1B2" rx="11" ry="11" style="stroke: #A80036; stroke-width: 1.0;"/><path d="M2026.4188,159.2841 Q2025.8406,159.581 2025.2,159.7294 Q2024.5594,159.8779 2023.8563,159.8779 Q2021.3563,159.8779 2020.0359,158.2294 Q2018.7156,156.581 2018.7156,153.456 Q2018.7156,150.331 2020.0359,148.6748 Q2021.3563,147.0185 2023.8563,147.0185 Q2024.5594,147.0185 2025.2078,147.1748 Q2025.8563,147.331 2026.4188,147.6279 L2026.4188,150.3466 Q2025.7938,149.7685 2025.2,149.4951 Q2024.6063,149.2216 2023.9813,149.2216 Q2022.6375,149.2216 2021.95,150.2919 Q2021.2625,151.3623 2021.2625,153.456 Q2021.2625,155.5498 2021.95,156.6201 Q2022.6375,157.6904 2023.9813,157.6904 Q2024.6063,157.6904 2025.2,157.4169 Q2025.7938,157.1435 2026.4188,156.5654 L2026.4188,159.2841 Z "/><text fill="#000000" font-family="sans-serif" font-size="12" lengthAdjust="spacingAndGlyphs" textLength="67" x="2037.55" y="157.7978">Freelancer</text><line style="stroke: #A80036; stroke-width: 1.5;" x1="2009" x2="2107" y1="169.6435" y2="169.6435"/><text fill="#000000" font-family="sans-serif" font-size="11" lengthAdjust="spacingAndGlyphs" textLength="74" x="2014" y="183.8539">-String nome</text><text fill="#000000" font-family="sans-serif" font-size="11" lengthAdjust="spacingAndGlyphs" textLength="59" x="2014" y="196.6586">-String NIF</text><text fill="#000000" font-family="sans-serif" font-size="11" lengthAdjust="spacingAndGlyphs" textLength="88" x="2014" y="209.4633">-String telefone</text><text fill="#000000" font-family="sans-serif" font-size="11" lengthAdjust="spacingAndGlyphs" textLength="73" x="2014" y="222.268">-String email</text><!--MD5=[3d9e8e0d764359bffb897b36dc4b633a]
link Plataforma to Anuncio--><path d="M124.3121,276.5116 C162.1278,259.3875 211.6852,236.9464 252.7372,218.3568 " fill="none" id="Plataforma-Anuncio" style="stroke: #A80036; stroke-width: 1.0;"/><text fill="#000000" font-family="sans-serif" font-size="13" lengthAdjust="spacingAndGlyphs" textLength="53" x="156" y="228.2104">publicita</text><polygon fill="#000000" points="212,222.2099,218,225.2099,212,228.2099,212,222.2099" style="stroke: #000000; stroke-width: 1.0;"/><text fill="#000000" font-family="sans-serif" font-size="13" lengthAdjust="spacingAndGlyphs" textLength="8" x="133.1451" y="285.9111">1</text><text fill="#000000" font-family="sans-serif" font-size="13" lengthAdjust="spacingAndGlyphs" textLength="7" x="237.9918" y="234.5093">*</text><!--MD5=[be5ee6f814561a4cae824b2e49d05e6c]
link Plataforma to AtribuicaoObrigatoria--><path d="M125.3957,321.1225 C135.2313,323.7141 145.3592,326.1677 155,328.1435 C251.2394,347.8662 363.4755,361.1945 437.9236,368.7058 " fill="none" id="Plataforma-AtribuicaoObrigatoria" style="stroke: #A80036; stroke-width: 1.0;"/><text fill="#000000" font-family="sans-serif" font-size="13" lengthAdjust="spacingAndGlyphs" textLength="42" x="161.5" y="324.2104">realiza</text><polygon fill="#000000" points="206.5,318.2099,212.5,321.2099,206.5,324.2099,206.5,318.2099" style="stroke: #000000; stroke-width: 1.0;"/><text fill="#000000" font-family="sans-serif" font-size="13" lengthAdjust="spacingAndGlyphs" textLength="8" x="133.183" y="336.3146">1</text><text fill="#000000" font-family="sans-serif" font-size="13" lengthAdjust="spacingAndGlyphs" textLength="7" x="422.9884" y="380.7846">*</text><!--MD5=[a88e6ac3eb5f05dd5ee627117090fbc3]
link Plataforma to SeriacaoObjetiva--><path d="M125.3016,303.1435 C165.755,303.1435 219.3028,303.1435 261.5533,303.1435 " fill="none" id="Plataforma-SeriacaoObjetiva" style="stroke: #A80036; stroke-width: 1.0;"/><text fill="#000000" font-family="sans-serif" font-size="13" lengthAdjust="spacingAndGlyphs" textLength="42" x="161.5" y="299.2104">realiza</text><polygon fill="#000000" points="206.5,293.2099,212.5,296.2099,206.5,299.2099,206.5,293.2099" style="stroke: #000000; stroke-width: 1.0;"/><text fill="#000000" font-family="sans-serif" font-size="13" lengthAdjust="spacingAndGlyphs" textLength="8" x="133.0774" y="316.1445">1</text><text fill="#000000" font-family="sans-serif" font-size="13" lengthAdjust="spacingAndGlyphs" textLength="7" x="247.0822" y="315.9907">*</text><!--MD5=[5b004714f110506f35a1f92cf330b1c6]
link ProcessoAtribuicao to TipoRegimento--><path d="M1109.5137,163.8201 C1179.9527,145.6257 1286.3966,116.5389 1377,85.1435 C1386.7319,81.7712 1396.8671,77.9737 1406.831,74.0671 " fill="none" id="ProcessoAtribuicao-TipoRegimento" style="stroke: #A80036; stroke-width: 1.0;"/><text fill="#000000" font-family="sans-serif" font-size="13" lengthAdjust="spacingAndGlyphs" textLength="195" x="1168" y="81.2104">decorre em concordância com</text><polygon fill="#000000" points="1366,75.2099,1372,78.2099,1366,81.2099,1366,75.2099" style="stroke: #000000; stroke-width: 1.0;"/><text fill="#000000" font-family="sans-serif" font-size="13" lengthAdjust="spacingAndGlyphs" textLength="8" x="1117.5377" y="174.7081">1</text><text fill="#000000" font-family="sans-serif" font-size="13" lengthAdjust="spacingAndGlyphs" textLength="8" x="1391.087" y="90.0405">1</text><!--MD5=[932f150c47e44017062d34de0987a1db]
link ProcessoAtribuicao to Classificacao--><path d="M1109.5276,183.1435 C1198.4328,183.1435 1342.2174,183.1435 1422.4931,183.1435 " fill="none" id="ProcessoAtribuicao-Classificacao" style="stroke: #A80036; stroke-width: 1.0;"/><text fill="#000000" font-family="sans-serif" font-size="13" lengthAdjust="spacingAndGlyphs" textLength="44" x="1243.5" y="179.2104">resulta</text><polygon fill="#000000" points="1290.5,173.2099,1296.5,176.2099,1290.5,179.2099,1290.5,173.2099" style="stroke: #000000; stroke-width: 1.0;"/><text fill="#000000" font-family="sans-serif" font-size="13" lengthAdjust="spacingAndGlyphs" textLength="8" x="1117.553" y="195.9337">1</text><text fill="#000000" font-family="sans-serif" font-size="13" lengthAdjust="spacingAndGlyphs" textLength="8" x="1406.4203" y="196.2049">1</text><!--MD5=[7d06a2927183570e13ebe5ea47997a17]
link ProcessoAtribuicao to Adjudicacao--><path d="M1109.5276,201.9433 C1196.1725,222.9539 1334.9418,256.6043 1416.2491,276.3207 " fill="none" id="ProcessoAtribuicao-Adjudicacao" style="stroke: #A80036; stroke-width: 1.0;"/><text fill="#000000" font-family="sans-serif" font-size="13" lengthAdjust="spacingAndGlyphs" textLength="55" x="1238" y="214.2104">espoleta</text><polygon fill="#000000" points="1296,208.2099,1302,211.2099,1296,214.2099,1296,208.2099" style="stroke: #000000; stroke-width: 1.0;"/><text fill="#000000" font-family="sans-serif" font-size="13" lengthAdjust="spacingAndGlyphs" textLength="8" x="1117.553" y="216.5841">1</text><text fill="#000000" font-family="sans-serif" font-size="13" lengthAdjust="spacingAndGlyphs" textLength="8" x="1400.6748" y="287.4952">1</text><!--MD5=[e767d587909ea487ed69fd1bac40e9cc]
link AtribuicaoObrigatoria to ProcessoAtribuicao--><path d="M603.3108,386 C683.1062,391.6477 804.9481,389.8861 897,342.1435 C935.0926,322.3868 966.8459,286.8519 989.9667,254.3792 " fill="none" id="AtribuicaoObrigatoria-ProcessoAtribuicao" style="stroke: #A80036; stroke-width: 1.0;"/><text fill="#000000" font-family="sans-serif" font-size="13" lengthAdjust="spacingAndGlyphs" textLength="36" x="681" y="376.2104">prevê</text><polygon fill="#000000" points="720,370.2099,726,373.2099,720,376.2099,720,370.2099" style="stroke: #000000; stroke-width: 1.0;"/><text fill="#000000" font-family="sans-serif" font-size="13" lengthAdjust="spacingAndGlyphs" textLength="8" x="611.0424" y="399.6186">1</text><text fill="#000000" font-family="sans-serif" font-size="13" lengthAdjust="spacingAndGlyphs" textLength="8" x="977.2195" y="274.55">1</text><!--MD5=[99a80b222618ae9d0e4c384b6b0d591a]
link SeriacaoObjetiva to ProcessoSeriacao--><path d="M393.2666,283.0582 C459.3619,261.9076 563.3027,228.6466 632.8889,206.379 " fill="none" id="SeriacaoObjetiva-ProcessoSeriacao" style="stroke: #A80036; stroke-width: 1.0;"/><text fill="#000000" font-family="sans-serif" font-size="13" lengthAdjust="spacingAndGlyphs" textLength="36" x="496" y="214.2104">prevê</text><polygon fill="#000000" points="535,208.2099,541,211.2099,535,214.2099,535,208.2099" style="stroke: #000000; stroke-width: 1.0;"/><text fill="#000000" font-family="sans-serif" font-size="13" lengthAdjust="spacingAndGlyphs" textLength="8" x="402.5293" y="272.0414">1</text><text fill="#000000" font-family="sans-serif" font-size="13" lengthAdjust="spacingAndGlyphs" textLength="8" x="616.9884" y="221.6425">1</text><!--MD5=[3fb03004f687adcfc695220fdd65ad26]
link Anuncio to TipoRegimento--><path d="M408.0595,131.7203 C417.8747,126.5801 427.9907,121.8878 438,118.1435 C744.0818,3.6428 840.2884,29.6267 1167,22.1435 C1260.3089,20.0062 1284.0835,13.3319 1377,22.1435 C1386.7462,23.0677 1396.936,24.4665 1406.9679,26.1038 " fill="none" id="Anuncio-TipoRegimento" style="stroke: #A80036; stroke-width: 1.0;"/><text fill="#000000" font-family="sans-serif" font-size="13" lengthAdjust="spacingAndGlyphs" textLength="74" x="809" y="21.2104">rege-se por</text><polygon fill="#000000" points="886,15.2099,892,18.2099,886,21.2099,886,15.2099" style="stroke: #000000; stroke-width: 1.0;"/><text fill="#000000" font-family="sans-serif" font-size="13" lengthAdjust="spacingAndGlyphs" textLength="7" x="416.0388" y="139.4785">*</text><text fill="#000000" font-family="sans-serif" font-size="13" lengthAdjust="spacingAndGlyphs" textLength="8" x="1390.8693" y="37.317">1</text><!--MD5=[b6f7c6f48377175abd4e6e8cc5d4c110]
link Anuncio to ProcessoAtribuicao--><path d="M408.1146,164.1635 C418.1399,161.9859 428.2923,159.9152 438,158.1435 C587.0895,130.933 627.1909,117.1528 778,132.1435 C837.7503,138.0827 904.2572,151.6968 954.2249,163.3659 " fill="none" id="Anuncio-ProcessoAtribuicao" style="stroke: #A80036; stroke-width: 1.0;"/><text fill="#000000" font-family="sans-serif" font-size="13" lengthAdjust="spacingAndGlyphs" textLength="55" x="671.5" y="122.2104">espoleta</text><polygon fill="#000000" points="729.5,116.2099,735.5,119.2099,729.5,122.2099,729.5,116.2099" style="stroke: #000000; stroke-width: 1.0;"/><text fill="#000000" font-family="sans-serif" font-size="13" lengthAdjust="spacingAndGlyphs" textLength="7" x="416.0993" y="175.1153">*</text><text fill="#000000" font-family="sans-serif" font-size="13" lengthAdjust="spacingAndGlyphs" textLength="8" x="938.4307" y="174.2481">1</text><!--MD5=[5a1cc96d2a0fb9d1e5d316c6f5e0139e]
link Anuncio to Adjudicacao--><path d="M408.0843,197.069 C469.1152,207.8186 556.3535,222.7333 633,234.1435 C763.3175,253.5434 795.6923,261.3129 927,272.1435 C1103.4072,286.6939 1312.2513,290.6605 1416.0828,291.7405 " fill="none" id="Anuncio-Adjudicacao" style="stroke: #A80036; stroke-width: 1.0;"/><text fill="#000000" font-family="sans-serif" font-size="13" lengthAdjust="spacingAndGlyphs" textLength="44" x="824" y="256.2104">recebe</text><polygon fill="#000000" points="871,250.2099,877,253.2099,871,256.2099,871,250.2099" style="stroke: #000000; stroke-width: 1.0;"/><text fill="#000000" font-family="sans-serif" font-size="13" lengthAdjust="spacingAndGlyphs" textLength="8" x="416.1153" y="211.26">1</text><text fill="#000000" font-family="sans-serif" font-size="13" lengthAdjust="spacingAndGlyphs" textLength="8" x="1400.4903" y="304.6016">1</text><!--MD5=[02d330b3691aaed85c2b7230cc23c1df]
link Anuncio to ProcessoSeriacao--><path d="M408.2002,183.1435 C474.2758,183.1435 568.4402,183.1435 632.9879,183.1435 " fill="none" id="Anuncio-ProcessoSeriacao" style="stroke: #A80036; stroke-width: 1.0;"/><text fill="#000000" font-family="sans-serif" font-size="13" lengthAdjust="spacingAndGlyphs" textLength="55" x="486.5" y="179.2104">espoleta</text><polygon fill="#000000" points="544.5,173.2099,550.5,176.2099,544.5,179.2099,544.5,173.2099" style="stroke: #000000; stroke-width: 1.0;"/><text fill="#000000" font-family="sans-serif" font-size="13" lengthAdjust="spacingAndGlyphs" textLength="8" x="415.9873" y="191.8323">1</text><text fill="#000000" font-family="sans-serif" font-size="13" lengthAdjust="spacingAndGlyphs" textLength="24" x="600.9328" y="195.9502">0..1</text><!--MD5=[577fefe1351fe0f89ea5388d9641a019]
link ProcessoSeriacao to TipoRegimento--><path d="M774.7639,149.9354 C817.6715,130.7302 874.4408,107.7438 927,94.1435 C1094.5559,50.7863 1298.8942,42.6382 1406.6578,41.6592 " fill="none" id="ProcessoSeriacao-TipoRegimento" style="stroke: #A80036; stroke-width: 1.0;"/><text fill="#000000" font-family="sans-serif" font-size="13" lengthAdjust="spacingAndGlyphs" textLength="195" x="928" y="54.2104">decorre em concordância com</text><polygon fill="#000000" points="1126,48.2099,1132,51.2099,1126,54.2099,1126,48.2099" style="stroke: #000000; stroke-width: 1.0;"/><text fill="#000000" font-family="sans-serif" font-size="13" lengthAdjust="spacingAndGlyphs" textLength="8" x="779.6127" y="139.0394">1</text><text fill="#000000" font-family="sans-serif" font-size="13" lengthAdjust="spacingAndGlyphs" textLength="8" x="1390.8968" y="54.4425">1</text><!--MD5=[3ef356a11e15094831544aa747dbb08f]
link ProcessoSeriacao to ProcessoAtribuicao--><path d="M778.3666,183.1435 C830.6148,183.1435 900.8997,183.1435 954.231,183.1435 " fill="none" id="ProcessoSeriacao-ProcessoAtribuicao" style="stroke: #A80036; stroke-width: 1.0;"/><text fill="#000000" font-family="sans-serif" font-size="13" lengthAdjust="spacingAndGlyphs" textLength="55" x="818.5" y="179.2104">espoleta</text><polygon fill="#000000" points="876.5,173.2099,882.5,176.2099,876.5,179.2099,876.5,173.2099" style="stroke: #000000; stroke-width: 1.0;"/><text fill="#000000" font-family="sans-serif" font-size="13" lengthAdjust="spacingAndGlyphs" textLength="8" x="785.9332" y="195.9744">1</text><text fill="#000000" font-family="sans-serif" font-size="13" lengthAdjust="spacingAndGlyphs" textLength="8" x="938.4374" y="195.9107">1</text><!--MD5=[471b8c6ff5fcf31b4b6fb9b4f947344d]
link Classificacao to Candidatura--><path d="M1540.7422,183.1435 C1587.1849,183.1435 1652.077,183.1435 1701.947,183.1435 " fill="none" id="Classificacao-Candidatura" style="stroke: #A80036; stroke-width: 1.0;"/><text fill="#000000" font-family="sans-serif" font-size="13" lengthAdjust="spacingAndGlyphs" textLength="71" x="1587" y="179.2104">referente a</text><polygon fill="#000000" points="1661,173.2099,1667,176.2099,1661,179.2099,1661,173.2099" style="stroke: #000000; stroke-width: 1.0;"/><text fill="#000000" font-family="sans-serif" font-size="13" lengthAdjust="spacingAndGlyphs" textLength="8" x="1548.4498" y="196.1564">1</text><text fill="#000000" font-family="sans-serif" font-size="13" lengthAdjust="spacingAndGlyphs" textLength="8" x="1685.8978" y="195.9895">1</text><!--MD5=[a66e767a4304f5fa76db98d7839a7a61]
link Candidatura to Freelancer--><path d="M1850.0922,183.1435 C1899.8642,183.1435 1964.1162,183.1435 2007.9344,183.1435 " fill="none" id="Candidatura-Freelancer" style="stroke: #A80036; stroke-width: 1.0;"/><text fill="#000000" font-family="sans-serif" font-size="13" lengthAdjust="spacingAndGlyphs" textLength="83" x="1881" y="179.2104">realizada por</text><polygon fill="#000000" points="1967,173.2099,1973,176.2099,1967,179.2099,1967,173.2099" style="stroke: #000000; stroke-width: 1.0;"/><text fill="#000000" font-family="sans-serif" font-size="13" lengthAdjust="spacingAndGlyphs" textLength="7" x="1858.0939" y="195.9895">*</text><text fill="#000000" font-family="sans-serif" font-size="13" lengthAdjust="spacingAndGlyphs" textLength="8" x="1991.9935" y="196.3056">1</text><!--MD5=[1a81373d99af90b5f42ed0d726b788a8]
@startuml
skinparam classAttributeIconSize 0
hide methods
left to right direction

class Plataforma {
  -String designacao
}

class ProcessoAtribuicao {
  -String emailOrganizacao
  -String freelancer
  -String descTarefa
  -Integer periodoTempo
  -Integer valor
  -String anuncioOriginal
  -Integer numSeq
  -Date dtInicioAdjudicacao
  }

class TipoRegimento
{
    -String designacao
    -String descricaoRegras
}

class Adjudicacao {
  -Date dataRealizacao
  }

class AtribuicaoObrigatoria {
  }

class SeriacaoObjetiva {
  }
  
class Anuncio
{
    -Date dtInicioPublicitacao
    -Date dtFimPublicitacao
    -Date dtInicioCandidatura
    -Date dtFimCandidatura
    -Date dtInicioSeriacao
    -Date dtFimSeriacao
}

class Candidatura
{
    -Date dataCandidatura
    -Double valorPretendido
    -Integer nrDias
    -String txtApresentacao
    -String txtMotivacao
}

class Classificacao
{
    -Integer lugar
    -String justificacao
}

class ProcessoSeriacao
{
    -Date dataRealizacao
    -String conclusao
}
class Freelancer{
  -String nome
  -String NIF
  -String telefone
  -String email 
  }

Plataforma "1" - - "*" Anuncio : publicita >
Plataforma "1" - - "*" AtribuicaoObrigatoria: realiza >
Plataforma "1" - - "*" SeriacaoObjetiva: realiza >


ProcessoAtribuicao "1" - - "1" TipoRegimento: decorre em concordância com >
ProcessoAtribuicao "1" - - "1" Classificacao: resulta >
ProcessoAtribuicao "1" - - "1" Adjudicacao: > espoleta

AtribuicaoObrigatoria "1" - - "1" ProcessoAtribuicao: prevê >

SeriacaoObjetiva "1" - - "1" ProcessoSeriacao: prevê >

Anuncio "*" - - "1" TipoRegimento: rege-se por >
Anuncio "*" - - "1" ProcessoAtribuicao: espoleta >
Anuncio "1" - - "1" Adjudicacao: recebe >
Anuncio "1" - - "0..1" ProcessoSeriacao: espoleta >

ProcessoSeriacao "1" - - "1" TipoRegimento: decorre em concordância com >
ProcessoSeriacao "1" - - "1" ProcessoAtribuicao: espoleta >

Classificacao "1" - - "1" Candidatura: referente a >

Candidatura "*" - - "1" Freelancer: realizada por >
@enduml

PlantUML version 1.2019.12(Sun Nov 03 10:24:54 UTC 2019)
(GPL source distribution)
Java Runtime: OpenJDK Runtime Environment
JVM: OpenJDK 64-Bit Server VM
Java Version: 1.8.0_232-heroku-b09
Operating System: Linux
Default Encoding: UTF-8
Language: en
Country: US
--></g></svg>