<?xml version="1.0" encoding="UTF-8" standalone="no"?><svg xmlns="http://www.w3.org/2000/svg" xmlns:xlink="http://www.w3.org/1999/xlink" contentScriptType="application/ecmascript" contentStyleType="text/css" height="664px" preserveAspectRatio="none" style="width:795px;height:664px;" version="1.1" viewBox="0 0 795 664" width="795px" zoomAndPan="magnify"><defs><filter height="300%" id="f16rt28z4sqs9q" width="300%" x="-1" y="-1"><feGaussianBlur result="blurOut" stdDeviation="2.0"/><feColorMatrix in="blurOut" result="blurOut2" type="matrix" values="0 0 0 0 0 0 0 0 0 0 0 0 0 0 0 0 0 0 .4 0"/><feOffset dx="4.0" dy="4.0" in="blurOut2" result="blurOut3"/><feBlend in="SourceGraphic" in2="blurOut3" mode="normal"/></filter></defs><g><rect fill="#FFFFFF" filter="url(#f16rt28z4sqs9q)" height="233.9922" style="stroke: #A80036; stroke-width: 1.0;" width="10" x="149" y="69.4297"/><rect fill="#FFFFFF" filter="url(#f16rt28z4sqs9q)" height="243.7969" style="stroke: #A80036; stroke-width: 1.0;" width="10" x="383.5" y="371.6875"/><rect fill="#FFFFFF" filter="url(#f16rt28z4sqs9q)" height="28" style="stroke: #A80036; stroke-width: 1.0;" width="10" x="388.5" y="454.0859"/><rect fill="#FFFFFF" filter="url(#f16rt28z4sqs9q)" height="28" style="stroke: #A80036; stroke-width: 1.0;" width="10" x="388.5" y="571.4844"/><rect fill="#FFFFFF" filter="url(#f16rt28z4sqs9q)" height="30" style="stroke: #A80036; stroke-width: 1.0;" width="10" x="637.5" y="273.4219"/><rect fill="#FFFFFF" filter="url(#f16rt28z4sqs9q)" height="243.7969" style="stroke: #A80036; stroke-width: 1.0;" width="10" x="637.5" y="371.6875"/><rect fill="#FEFECE" filter="url(#f16rt28z4sqs9q)" height="30.2969" style="stroke: #A80036; stroke-width: 1.5;" width="279" x="247" y="77.4297"/><text fill="#000000" font-family="sans-serif" font-size="14" lengthAdjust="spacingAndGlyphs" textLength="265" x="254" y="97.4248">task: SeriarCandidaturasAnunciosTask</text><rect fill="#FEFECE" filter="url(#f16rt28z4sqs9q)" height="30.2969" style="stroke: #A80036; stroke-width: 1.5;" width="53" x="614" y="206.9922"/><text fill="#000000" font-family="sans-serif" font-size="14" lengthAdjust="spacingAndGlyphs" textLength="39" x="621" y="226.9873">Timer</text><line style="stroke: #A80036; stroke-width: 1.0; stroke-dasharray: 5.0,5.0;" x1="154" x2="154" y1="38.2969" y2="624.4844"/><line style="stroke: #A80036; stroke-width: 1.0; stroke-dasharray: 5.0,5.0;" x1="388" x2="388" y1="110.0781" y2="624.4844"/><line style="stroke: #A80036; stroke-width: 1.0; stroke-dasharray: 5.0,5.0;" x1="642" x2="642" y1="239.6406" y2="624.4844"/><rect fill="#FEFECE" filter="url(#f16rt28z4sqs9q)" height="30.2969" style="stroke: #A80036; stroke-width: 1.5;" width="86" x="109" y="3"/><text fill="#000000" font-family="sans-serif" font-size="14" lengthAdjust="spacingAndGlyphs" textLength="72" x="116" y="22.9951">Plataforma</text><rect fill="#FEFECE" filter="url(#f16rt28z4sqs9q)" height="30.2969" style="stroke: #A80036; stroke-width: 1.5;" width="86" x="109" y="623.4844"/><text fill="#000000" font-family="sans-serif" font-size="14" lengthAdjust="spacingAndGlyphs" textLength="72" x="116" y="643.4795">Plataforma</text><rect fill="#FEFECE" filter="url(#f16rt28z4sqs9q)" height="30.2969" style="stroke: #A80036; stroke-width: 1.5;" width="279" x="247" y="623.4844"/><text fill="#000000" font-family="sans-serif" font-size="14" lengthAdjust="spacingAndGlyphs" textLength="265" x="254" y="643.4795">task: SeriarCandidaturasAnunciosTask</text><rect fill="#FEFECE" filter="url(#f16rt28z4sqs9q)" height="30.2969" style="stroke: #A80036; stroke-width: 1.5;" width="53" x="614" y="623.4844"/><text fill="#000000" font-family="sans-serif" font-size="14" lengthAdjust="spacingAndGlyphs" textLength="39" x="621" y="643.4795">Timer</text><rect fill="#FFFFFF" filter="url(#f16rt28z4sqs9q)" height="233.9922" style="stroke: #A80036; stroke-width: 1.0;" width="10" x="149" y="69.4297"/><rect fill="#FFFFFF" filter="url(#f16rt28z4sqs9q)" height="243.7969" style="stroke: #A80036; stroke-width: 1.0;" width="10" x="383.5" y="371.6875"/><rect fill="#FFFFFF" filter="url(#f16rt28z4sqs9q)" height="28" style="stroke: #A80036; stroke-width: 1.0;" width="10" x="388.5" y="454.0859"/><rect fill="#FFFFFF" filter="url(#f16rt28z4sqs9q)" height="28" style="stroke: #A80036; stroke-width: 1.0;" width="10" x="388.5" y="571.4844"/><rect fill="#FFFFFF" filter="url(#f16rt28z4sqs9q)" height="30" style="stroke: #A80036; stroke-width: 1.0;" width="10" x="637.5" y="273.4219"/><rect fill="#FFFFFF" filter="url(#f16rt28z4sqs9q)" height="243.7969" style="stroke: #A80036; stroke-width: 1.0;" width="10" x="637.5" y="371.6875"/><polygon fill="#A80036" points="137,65.4297,147,69.4297,137,73.4297,141,69.4297" style="stroke: #A80036; stroke-width: 1.0;"/><line style="stroke: #A80036; stroke-width: 1.0;" x1="3" x2="143" y1="69.4297" y2="69.4297"/><text fill="#000000" font-family="sans-serif" font-size="13" font-weight="bold" lengthAdjust="spacingAndGlyphs" textLength="9" x="10" y="64.3638">1</text><text fill="#000000" font-family="sans-serif" font-size="13" lengthAdjust="spacingAndGlyphs" textLength="114" x="23" y="64.3638">agendaSeriacao()</text><polygon fill="#A80036" points="235,94.5625,245,98.5625,235,102.5625,239,98.5625" style="stroke: #A80036; stroke-width: 1.0;"/><line style="stroke: #A80036; stroke-width: 1.0;" x1="159" x2="241" y1="98.5625" y2="98.5625"/><text fill="#000000" font-family="sans-serif" font-size="13" font-weight="bold" lengthAdjust="spacingAndGlyphs" textLength="9" x="166" y="93.4966">2</text><text fill="#000000" font-family="sans-serif" font-size="13" lengthAdjust="spacingAndGlyphs" textLength="51" x="179" y="93.4966">create()</text><rect fill="#FEFECE" filter="url(#f16rt28z4sqs9q)" height="30.2969" style="stroke: #A80036; stroke-width: 1.5;" width="279" x="247" y="77.4297"/><text fill="#000000" font-family="sans-serif" font-size="14" lengthAdjust="spacingAndGlyphs" textLength="265" x="254" y="97.4248">task: SeriarCandidaturasAnunciosTask</text><line style="stroke: #A80036; stroke-width: 1.0;" x1="159" x2="201" y1="143.8594" y2="143.8594"/><line style="stroke: #A80036; stroke-width: 1.0;" x1="201" x2="201" y1="143.8594" y2="156.8594"/><line style="stroke: #A80036; stroke-width: 1.0;" x1="160" x2="201" y1="156.8594" y2="156.8594"/><polygon fill="#A80036" points="170,152.8594,160,156.8594,170,160.8594,166,156.8594" style="stroke: #A80036; stroke-width: 1.0;"/><text fill="#000000" font-family="sans-serif" font-size="13" font-weight="bold" lengthAdjust="spacingAndGlyphs" textLength="9" x="166" y="138.7935">3</text><text fill="#000000" font-family="sans-serif" font-size="13" lengthAdjust="spacingAndGlyphs" textLength="112" x="179" y="138.7935">delay=getDelay()</text><line style="stroke: #A80036; stroke-width: 1.0;" x1="159" x2="201" y1="185.9922" y2="185.9922"/><line style="stroke: #A80036; stroke-width: 1.0;" x1="201" x2="201" y1="185.9922" y2="198.9922"/><line style="stroke: #A80036; stroke-width: 1.0;" x1="160" x2="201" y1="198.9922" y2="198.9922"/><polygon fill="#A80036" points="170,194.9922,160,198.9922,170,202.9922,166,198.9922" style="stroke: #A80036; stroke-width: 1.0;"/><text fill="#000000" font-family="sans-serif" font-size="13" font-weight="bold" lengthAdjust="spacingAndGlyphs" textLength="9" x="166" y="180.9263">4</text><text fill="#000000" font-family="sans-serif" font-size="13" lengthAdjust="spacingAndGlyphs" textLength="152" x="179" y="180.9263">intervalo=getIntervalo()</text><polygon fill="#A80036" points="602,224.125,612,228.125,602,232.125,606,228.125" style="stroke: #A80036; stroke-width: 1.0;"/><line style="stroke: #A80036; stroke-width: 1.0;" x1="159" x2="608" y1="228.125" y2="228.125"/><text fill="#000000" font-family="sans-serif" font-size="13" font-weight="bold" lengthAdjust="spacingAndGlyphs" textLength="9" x="166" y="223.0591">5</text><text fill="#000000" font-family="sans-serif" font-size="13" lengthAdjust="spacingAndGlyphs" textLength="51" x="179" y="223.0591">create()</text><rect fill="#FEFECE" filter="url(#f16rt28z4sqs9q)" height="30.2969" style="stroke: #A80036; stroke-width: 1.5;" width="53" x="614" y="206.9922"/><text fill="#000000" font-family="sans-serif" font-size="14" lengthAdjust="spacingAndGlyphs" textLength="39" x="621" y="226.9873">Timer</text><polygon fill="#A80036" points="625.5,269.4219,635.5,273.4219,625.5,277.4219,629.5,273.4219" style="stroke: #A80036; stroke-width: 1.0;"/><line style="stroke: #A80036; stroke-width: 1.0;" x1="159" x2="631.5" y1="273.4219" y2="273.4219"/><text fill="#000000" font-family="sans-serif" font-size="13" font-weight="bold" lengthAdjust="spacingAndGlyphs" textLength="9" x="166" y="268.356">6</text><text fill="#000000" font-family="sans-serif" font-size="13" lengthAdjust="spacingAndGlyphs" textLength="199" x="179" y="268.356">schedule(task, delay, intervalo)</text><path d="M119,316.4219 L119,341.4219 L676,341.4219 L676,326.4219 L666,316.4219 L119,316.4219 " fill="#FBFB77" filter="url(#f16rt28z4sqs9q)" style="stroke: #A80036; stroke-width: 1.0;"/><path d="M666,316.4219 L666,326.4219 L676,326.4219 L666,316.4219 " fill="#FBFB77" style="stroke: #A80036; stroke-width: 1.0;"/><text fill="#000000" font-family="sans-serif" font-size="13" lengthAdjust="spacingAndGlyphs" textLength="377" x="202.5" y="333.4888">Decorrido o tempo especificado por "delay" e/ou "intervalo"</text><polygon fill="#A80036" points="404.5,367.6875,394.5,371.6875,404.5,375.6875,400.5,371.6875" style="stroke: #A80036; stroke-width: 1.0;"/><line style="stroke: #A80036; stroke-width: 1.0;" x1="398.5" x2="636.5" y1="371.6875" y2="371.6875"/><text fill="#000000" font-family="sans-serif" font-size="13" font-weight="bold" lengthAdjust="spacingAndGlyphs" textLength="9" x="410.5" y="366.6216">7</text><text fill="#000000" font-family="sans-serif" font-size="13" lengthAdjust="spacingAndGlyphs" textLength="35" x="423.5" y="366.6216">run ()</text><rect fill="#FFFFFF" filter="url(#f16rt28z4sqs9q)" height="40.2656" style="stroke: #000000; stroke-width: 2.0;" width="165" x="611" y="379.6875"/><polygon fill="#EEEEEE" points="611,379.6875,677,379.6875,677,386.6875,667,396.6875,611,396.6875,611,379.6875" style="stroke: #000000; stroke-width: 2.0;"/><text fill="#000000" font-family="sans-serif" font-size="13" font-weight="bold" lengthAdjust="spacingAndGlyphs" textLength="21" x="624" y="393.7544">ref</text><text fill="#000000" font-family="sans-serif" font-size="13" lengthAdjust="spacingAndGlyphs" textLength="157" x="617" y="412.7544">sd_getProcessoSeriacao</text><line style="stroke: #A80036; stroke-width: 1.0;" x1="398.5" x2="440.5" y1="446.0859" y2="446.0859"/><line style="stroke: #A80036; stroke-width: 1.0;" x1="440.5" x2="440.5" y1="446.0859" y2="459.0859"/><line style="stroke: #A80036; stroke-width: 1.0;" x1="399.5" x2="440.5" y1="459.0859" y2="459.0859"/><polygon fill="#A80036" points="409.5,455.0859,399.5,459.0859,409.5,463.0859,405.5,459.0859" style="stroke: #A80036; stroke-width: 1.0;"/><text fill="#000000" font-family="sans-serif" font-size="13" font-weight="bold" lengthAdjust="spacingAndGlyphs" textLength="9" x="405.5" y="441.02">8</text><text fill="#000000" font-family="sans-serif" font-size="13" lengthAdjust="spacingAndGlyphs" textLength="208" x="418.5" y="441.02">seriarCandidaturasSubmetidas()</text><rect fill="#FFFFFF" filter="url(#f16rt28z4sqs9q)" height="40.2656" style="stroke: #000000; stroke-width: 2.0;" width="173" x="611" y="497.0859"/><polygon fill="#EEEEEE" points="611,497.0859,677,497.0859,677,504.0859,667,514.0859,611,514.0859,611,497.0859" style="stroke: #000000; stroke-width: 2.0;"/><text fill="#000000" font-family="sans-serif" font-size="13" font-weight="bold" lengthAdjust="spacingAndGlyphs" textLength="21" x="624" y="511.1528">ref</text><text fill="#000000" font-family="sans-serif" font-size="13" lengthAdjust="spacingAndGlyphs" textLength="165" x="617" y="530.1528">sd_getProcessoAtribuicao</text><line style="stroke: #A80036; stroke-width: 1.0;" x1="398.5" x2="440.5" y1="563.4844" y2="563.4844"/><line style="stroke: #A80036; stroke-width: 1.0;" x1="440.5" x2="440.5" y1="563.4844" y2="576.4844"/><line style="stroke: #A80036; stroke-width: 1.0;" x1="399.5" x2="440.5" y1="576.4844" y2="576.4844"/><polygon fill="#A80036" points="409.5,572.4844,399.5,576.4844,409.5,580.4844,405.5,576.4844" style="stroke: #A80036; stroke-width: 1.0;"/><text fill="#000000" font-family="sans-serif" font-size="13" font-weight="bold" lengthAdjust="spacingAndGlyphs" textLength="9" x="405.5" y="558.4185">9</text><text fill="#000000" font-family="sans-serif" font-size="13" lengthAdjust="spacingAndGlyphs" textLength="217" x="418.5" y="558.4185">atribuirCandidaturasSubmetidas()</text><!--MD5=[4258cd9ee64705d4992ec8d9c1cc1f84]
@startuml
participant "Plataforma" as PLTF
participant "task: SeriarCandidaturasAnunciosTask" as SERIARCAND
autonumber
-> PLTF: agendaSeriacao()
activate PLTF
PLTF -> SERIARCAND** : create()
PLTF -> PLTF : delay=getDelay()
PLTF -> PLTF : intervalo=getIntervalo()
PLTF -> Timer*** : create()
PLTF -> Timer : schedule(task, delay, intervalo) 
activate Timer
deactivate Timer
deactivate PLTF
note over PLTF, Timer
Decorrido o tempo especificado por "delay" e/ou "intervalo"
end note
Timer -> SERIARCAND: run ()
activate SERIARCAND
activate Timer
ref over Timer : sd_getProcessoSeriacao
SERIARCAND -> SERIARCAND: seriarCandidaturasSubmetidas()
activate SERIARCAND
deactivate SERIARCAND
ref over Timer : sd_getProcessoAtribuicao
SERIARCAND -> SERIARCAND: atribuirCandidaturasSubmetidas()
activate SERIARCAND
deactivate SERIARCAND
@enduml

PlantUML version 1.2019.12(Sun Nov 03 10:24:54 UTC 2019)
(GPL source distribution)
Java Runtime: OpenJDK Runtime Environment
JVM: OpenJDK 64-Bit Server VM
Java Version: 1.8.0_232-heroku-b09
Operating System: Linux
Default Encoding: UTF-8
Language: en
Country: US
--></g></svg>